<svg width="20" height="21" viewBox="0 0 20 21" fill="none" xmlns="http://www.w3.org/2000/svg">
<path d="M17.2363 5.46213L14.2221 2.43182C14.0507 2.26354 13.8212 2.16851 13.5816 2.16667H7.55323C7.15414 2.16866 6.77195 2.32893 6.48975 2.61265C6.20754 2.89637 6.04812 3.28059 6.04614 3.68182V5.19697H4.84047C4.44137 5.19897 4.05919 5.35924 3.77698 5.64295C3.49477 5.92667 3.33535 6.3109 3.33337 6.71213V17.3182C3.33535 17.7194 3.49477 18.1036 3.77698 18.3874C4.05919 18.6711 4.44137 18.8313 4.84047 18.8333H12.9788C13.3779 18.8313 13.76 18.6711 14.0423 18.3874C14.3245 18.1036 14.4839 17.7194 14.4859 17.3182V15.803H15.9929C16.392 15.801 16.7742 15.6408 17.0564 15.3571C17.3386 15.0733 17.4981 14.6891 17.5 14.2879V6.10607C17.4982 5.86522 17.4037 5.63444 17.2363 5.46213V5.46213ZM12.6773 17.0152H5.14188V7.01516H10.1906L12.6773 9.51516V17.0152ZM15.6915 13.9849H14.4859V9.13637C14.484 8.89552 14.3895 8.66474 14.2221 8.49243L11.2079 5.46213C11.0365 5.29384 10.807 5.19881 10.5674 5.19697H7.85465V3.98485H13.2048L15.6915 6.48485V13.9849ZM11.4717 11.8636C11.4717 12.1047 11.3764 12.336 11.2068 12.5065C11.0372 12.677 10.8072 12.7727 10.5674 12.7727H7.25181C7.01199 12.7727 6.78199 12.677 6.61241 12.5065C6.44283 12.336 6.34756 12.1047 6.34756 11.8636C6.34756 11.6225 6.44283 11.3913 6.61241 11.2208C6.78199 11.0503 7.01199 10.9546 7.25181 10.9546H10.5674C10.8072 10.9546 11.0372 11.0503 11.2068 11.2208C11.3764 11.3913 11.4717 11.6225 11.4717 11.8636ZM11.4717 14.8939C11.4717 15.1351 11.3764 15.3663 11.2068 15.5368C11.0372 15.7073 10.8072 15.803 10.5674 15.803H7.25181C7.01199 15.803 6.78199 15.7073 6.61241 15.5368C6.44283 15.3663 6.34756 15.1351 6.34756 14.8939C6.34756 14.6528 6.44283 14.4216 6.61241 14.2511C6.78199 14.0806 7.01199 13.9849 7.25181 13.9849H10.5674C10.8072 13.9849 11.0372 14.0806 11.2068 14.2511C11.3764 14.4216 11.4717 14.6528 11.4717 14.8939Z" fill="#6C757D"/>
</svg>
