<svg width="20" height="21" viewBox="0 0 20 21" fill="none" xmlns="http://www.w3.org/2000/svg">
<path d="M9.19509 18.8333C7.90591 18.8333 6.61738 18.833 5.3282 18.8321C4.25893 18.8314 3.38874 18.0105 3.34645 16.9638C3.33213 16.6082 3.33441 16.2549 3.33636 15.9132C3.33701 15.7947 3.33766 15.6781 3.33799 15.5612C3.33799 15.2293 3.33701 14.8975 3.33571 14.5657C3.33279 13.7669 3.32953 12.9411 3.34677 12.1241C3.38126 10.4758 4.02959 9.04537 5.2742 7.87308C5.83828 7.34171 6.49506 6.93045 7.22797 6.64955C7.22342 6.39107 7.29076 6.14924 7.42901 5.92759C7.13071 5.34497 6.83338 4.75723 6.54484 4.18774L6.37145 3.84534C6.25987 3.62466 6.27158 3.35913 6.4017 3.15222C6.45896 3.06125 6.538 2.98374 6.63072 2.92737C6.67984 2.89246 6.72863 2.85755 6.7771 2.82263L6.80671 2.80149C6.97651 2.67978 7.13461 2.5664 7.30507 2.45237C7.58386 2.26532 7.90526 2.16666 8.23414 2.16666C8.30538 2.16666 8.37695 2.17147 8.44786 2.18108C8.53212 2.17147 8.61767 2.16666 8.70258 2.16666C9.21525 2.16666 9.68564 2.33514 10.0035 2.63045C10.3203 2.33546 10.7907 2.1673 11.3031 2.1673C11.3896 2.1673 11.4764 2.17243 11.5617 2.18204C11.6316 2.17275 11.7025 2.16795 11.7731 2.16795C12.1101 2.16795 12.4371 2.27044 12.7188 2.46422C12.8788 2.5744 13.0327 2.68458 13.1953 2.80117C13.2702 2.85466 13.344 2.90783 13.4205 2.96228C13.7009 3.16183 13.792 3.52761 13.6374 3.83221L13.383 4.33444C13.1261 4.84147 12.8613 5.36483 12.5948 5.88532C12.6719 6.024 12.7256 6.17743 12.7555 6.34334C12.7731 6.44199 12.7816 6.54577 12.7803 6.64987C13.1687 6.79976 13.52 6.97849 13.8502 7.19373C15.4025 8.20683 16.3313 9.64304 16.6097 11.4623C16.6559 11.7634 16.6628 12.0539 16.6637 12.3233C16.6683 13.9514 16.6667 15.5685 16.665 16.7956C16.6637 17.7527 16.1091 18.5025 15.2178 18.7533C15.0375 18.8039 14.8476 18.8308 14.6677 18.8311C12.7442 18.8324 10.9026 18.8333 9.19509 18.8333ZM12.5987 16.9391C13.2617 16.9391 13.9244 16.9391 14.587 16.9385C14.6924 16.9385 14.7184 16.9189 14.7187 16.9186C14.7187 16.9186 14.7373 16.8936 14.7373 16.7956C14.7373 16.4375 14.7376 16.0794 14.7379 15.721C14.7389 14.6077 14.7402 13.4587 14.7334 12.3303C14.7314 12.002 14.708 11.7452 14.6595 11.5213C14.3108 9.90505 13.3297 8.82308 11.7435 8.30516C11.2299 8.15046 10.7279 8.07807 10.1638 8.07807C9.70061 8.07807 9.23835 8.129 8.88735 8.1732C6.8285 8.43296 5.2716 10.2 5.26639 12.2833C5.26346 13.4421 5.26444 14.6179 5.26542 15.7546C5.26542 15.7546 5.26607 16.4753 5.26639 16.8254C5.26639 16.8539 5.26704 16.8686 5.26769 16.875C5.27713 16.9148 5.29046 16.9381 5.41636 16.9381C6.09234 16.9385 6.76832 16.9385 7.4443 16.9385H9.98688C9.98655 16.9388 12.5987 16.9391 12.5987 16.9391ZM8.40948 4.59548C8.56888 4.90905 8.72828 5.22262 8.88735 5.53619C8.89125 5.54356 8.89483 5.55093 8.89841 5.55829C9.26991 5.55701 9.6414 5.55637 10.0041 5.55637C10.3672 5.55637 10.7367 5.55701 11.1056 5.55829C11.2045 5.36323 11.4387 4.90296 11.4387 4.90296L11.4407 4.89912C11.6124 4.56121 11.7884 4.21529 11.9644 3.86776C11.834 3.80466 11.7224 3.72619 11.631 3.63331C11.63 3.63234 11.6287 3.63106 11.6271 3.62978C11.1846 4.0324 10.6098 4.2534 10.0022 4.2534C9.39612 4.2534 8.82196 4.03272 8.37792 3.63074C8.37532 3.63299 8.37304 3.63459 8.37174 3.63651C8.28098 3.72971 8.1707 3.80851 8.04188 3.87193C8.15314 4.09101 8.40948 4.59548 8.40948 4.59548Z" fill="#015426"/>
<path d="M12.0135 12.5087H7.98659C7.51067 12.5087 7.12128 12.1253 7.12128 11.6568C7.12128 11.1882 7.51067 10.8048 7.98659 10.8048H12.0135C12.4894 10.8048 12.8788 11.1882 12.8788 11.6568C12.8788 12.1253 12.4894 12.5087 12.0135 12.5087Z" fill="#015426"/>
<path d="M12.0135 15.5051H7.98659C7.51067 15.5051 7.12128 15.1217 7.12128 14.6531C7.12128 14.1845 7.51067 13.8011 7.98659 13.8011H12.0135C12.4894 13.8011 12.8788 14.1845 12.8788 14.6531C12.8788 15.1217 12.4894 15.5051 12.0135 15.5051Z" fill="#015426"/>
</svg>
