<svg width="41" height="38" viewBox="0 0 41 38" fill="none" xmlns="http://www.w3.org/2000/svg">
<path d="M0.500244 24.9243C1.94419 23.1602 3.70454 21.8482 5.95004 21.2191C7.63273 20.7482 9.28857 20.9102 10.9463 21.3622C12.7958 21.8671 14.5447 22.5998 16.2274 23.4993C16.9906 23.9071 17.7509 24.3347 18.5572 24.6436C19.1996 24.8894 19.9082 24.9676 20.6695 25.1381C20.7471 23.9853 20.8574 22.9323 20.8814 21.8774C20.9542 18.6969 20.7423 15.5398 19.7931 12.477C19.5036 11.5418 19.0644 10.6517 18.7001 9.73909C18.5994 9.48762 18.446 9.45372 18.1862 9.51023C16.6588 9.84175 15.143 9.86153 13.6655 9.27194C12.2771 8.71815 11.3394 7.71039 10.7306 6.39653C9.88398 4.56843 9.76988 2.62449 9.85809 0.657002C9.87631 0.255781 10.1198 0.00713729 10.5312 0.00148629C13.0586 -0.0277105 15.5572 0.140878 17.8381 1.36432C19.47 2.23928 20.4001 3.57951 20.3953 5.4481C20.3924 6.44268 20.1201 7.3911 19.7116 8.29715C19.6062 8.53072 19.6186 8.71155 19.7414 8.93288C20.9514 11.1161 21.5583 13.4819 21.8996 15.9241C21.9964 16.6182 22.0597 17.3171 22.1508 18.1205C22.3186 17.7588 22.4548 17.4923 22.5631 17.2154C22.5928 17.1391 22.5535 17.027 22.5238 16.9385C21.9389 15.1951 21.8277 13.4556 22.6561 11.7574C23.3589 10.3164 24.6082 9.49987 26.1212 9.04873C27.5431 8.62491 29.0072 8.5392 30.4837 8.6202C31.012 8.64939 31.2622 8.86507 31.268 9.33316C31.291 11.3647 31.1002 13.367 30.2498 15.2516C29.6994 16.4704 28.8825 17.4584 27.5469 17.9104C26.4846 18.2712 25.4213 18.1459 24.3685 17.8417C24.1969 17.7918 24.0272 17.7343 23.8306 17.6721C22.7088 20.0258 22.1422 22.4774 22.0262 25.0797C22.1863 25.0797 22.3272 25.0797 22.4672 25.0797C23.821 25.0797 25.1758 25.1136 26.5287 25.0702C27.8067 25.0288 28.8998 25.3245 29.6639 26.4529C30.5681 25.43 31.4415 24.4364 32.3217 23.4475C33.4272 22.2061 34.4896 20.9243 35.6602 19.7451C36.759 18.6375 38.1991 18.242 39.7553 18.2627C40.3478 18.2702 40.6565 18.7006 40.4255 19.2186C38.8099 22.8409 37.2221 26.4755 35.5481 30.0714C34.4675 32.393 32.5758 33.8378 30.0944 34.6063C28.5508 35.0838 27.0531 35.7054 25.5296 36.2451C24.5181 36.6039 23.5152 37.0183 22.473 37.2576C20.2476 37.768 18.0894 37.4412 16.0021 36.5484C13.6933 35.5604 11.3826 34.5733 9.0527 33.6324C7.27797 32.9157 5.41215 32.5173 3.50895 32.2922C2.74766 32.2018 1.98446 32.1264 1.2203 32.0596C0.889515 32.0304 0.669951 31.8627 0.501203 31.6019C0.500244 29.3763 0.500244 27.1498 0.500244 24.9243ZM1.81859 30.8041C2.44181 30.8719 2.99695 30.9284 3.55209 30.9934C5.5972 31.2345 7.60492 31.6508 9.51292 32.4222C11.9022 33.3876 14.2686 34.4095 16.6435 35.4087C18.307 36.1085 20.0386 36.44 21.82 36.0511C22.9389 35.8062 24.0233 35.3927 25.1077 35.0113C26.4874 34.5253 27.8183 33.8783 29.2267 33.5072C31.802 32.83 33.5883 31.3626 34.6401 28.9628C35.944 25.9866 37.2912 23.0293 38.6191 20.0625C38.6776 19.9316 38.7255 19.795 38.7945 19.6199C37.7418 19.7988 36.8952 20.2415 36.2336 20.9865C34.2479 23.2214 32.2738 25.4658 30.2996 27.7111C30.2114 27.811 30.1174 27.9485 30.1146 28.0709C30.0695 29.6052 28.7665 30.9623 26.7981 30.9218C24.1048 30.8653 21.4087 30.9058 18.7135 30.9105C18.3501 30.9115 17.982 30.9124 17.6234 30.9652C16.8324 31.081 16.0452 31.2298 15.2168 31.372C15.0883 31.0123 14.9503 30.6261 14.8064 30.2258C16.1027 29.7992 17.3808 29.6127 18.6905 29.6136C21.4768 29.6146 24.263 29.6118 27.0483 29.6155C27.6994 29.6165 28.2152 29.3706 28.5527 28.8216C29.2143 27.7441 28.4424 26.3926 27.149 26.3822C25.1835 26.3671 23.217 26.3681 21.2515 26.3803C19.5208 26.3907 17.9101 25.9932 16.423 25.1098C14.6597 24.0625 12.7987 23.2261 10.8111 22.6705C9.49758 22.3031 8.1802 22.0752 6.81391 22.3587C4.92317 22.7505 3.40731 23.7602 2.07842 25.0919C1.89242 25.2784 1.81188 25.4677 1.81379 25.7323C1.82626 27.292 1.81955 28.8526 1.81955 30.4133C1.81859 30.5357 1.81859 30.66 1.81859 30.8041ZM11.141 1.2852C11.1467 2.56421 11.2263 3.76693 11.5763 4.94611C12.3912 7.68872 14.4114 8.70025 17.1095 8.38756C17.3214 8.36308 17.5313 8.31693 17.7499 8.27925C17.726 8.21332 17.7221 8.18601 17.7087 8.16623C17.6483 8.08241 17.5869 8.00047 17.5227 7.91947C16.6416 6.81376 15.5601 5.95669 14.2609 5.36051C13.8189 5.15708 13.6799 4.81143 13.8486 4.46389C14.0231 4.10599 14.4057 4.00427 14.8496 4.21148C15.119 4.33768 15.3855 4.47142 15.6454 4.61647C16.8372 5.28422 17.8171 6.19027 18.7107 7.31387C18.8132 6.93526 18.9082 6.62257 18.981 6.30611C19.3396 4.73702 18.7797 3.43541 17.3933 2.59906C16.562 2.09706 15.6444 1.82676 14.7019 1.62709C13.5427 1.38127 12.3711 1.26919 11.141 1.2852ZM24.4864 16.4911C26.5057 17.2559 28.1078 16.7152 28.9678 14.8843C29.4818 13.7899 29.7263 12.6371 29.871 11.457C29.9334 10.9446 29.9382 10.4266 29.9707 9.8879C28.6888 9.87377 27.4875 9.95571 26.3292 10.3381C25.0147 10.7723 24.0262 11.5531 23.6091 12.9084C23.3512 13.7447 23.3167 14.5876 23.5056 15.4551C24.009 14.8391 24.449 14.2147 24.9783 13.675C25.5076 13.1363 26.1097 12.6625 26.7099 12.1973C27.0666 11.9213 27.4443 11.9948 27.6696 12.3046C27.8863 12.6023 27.801 12.9799 27.4587 13.238C27.4069 13.2766 27.3513 13.3105 27.2995 13.3482C26.1442 14.1921 25.2448 15.2554 24.4864 16.4911Z" fill="#495057"/>
</svg>
