<svg width="197" height="475" viewBox="0 0 197 475" fill="none" xmlns="http://www.w3.org/2000/svg">
<g opacity="0.2" clip-path="url(#clip0_17_1710)">
<path d="M121.598 281.328C120.587 283.234 120.054 284.24 119.536 285.218C108.702 279.922 101.581 259.733 104.764 240C105.588 240.802 106.317 241.439 106.983 242.175C109.072 244.479 111.074 246.927 113.224 249.125C119.026 255.054 121.838 262.823 121.701 272.503C121.671 274.626 121.697 276.751 121.697 278.626C122.982 275.054 124.212 271.298 125.655 267.691C128.945 259.463 134.003 254.184 140.833 251.712C143.283 250.824 145.568 249.14 148.574 247.459C148.437 249.571 148.534 251.286 148.191 252.826C145.193 266.31 140.093 277.555 129.611 283.007C126.87 284.432 125.251 287.247 124.81 291.084C124.235 296.062 123.54 301.046 123.331 306.06C122 337.943 122.257 369.851 122.742 401.757C122.942 414.913 123.062 428.074 123.298 441.23C123.468 450.585 123.77 459.932 124.298 469.264C125.019 460.605 125.653 451.931 126.476 443.287C130.932 396.382 143.388 353.806 165.863 316.756C169.21 311.238 173.075 306.267 177 301.449C172.326 309.788 167.432 317.925 163.021 326.501C151.191 349.508 142.724 374.502 139.029 402.024C136.714 419.264 135.728 436.677 136.761 454.212C137.152 460.857 137.468 467.507 137.795 474.157C137.837 475.006 137.742 475.868 137.7 477C132.088 477 126.704 477 121.08 477C120.979 475.876 120.812 474.857 120.808 473.836C120.557 424.26 120.266 374.686 120.121 325.11C120.087 313.398 120.511 301.681 120.801 289.972C120.856 287.484 121.244 285.009 121.598 281.328Z" fill="#CA8A04"/>
<path d="M151.058 16.9255C148.588 36.2887 145.158 55.4956 141.566 74.7553C146.649 63.6102 151.811 52.5009 156.795 41.3106C161.797 30.0752 166.621 18.7607 172.034 7.64014C171.589 8.96904 171.237 10.3375 170.686 11.6193C164.49 26.0433 158.248 40.4467 152.058 54.8745C150.684 58.0762 149.524 61.3703 148.151 64.5758C147.461 66.1889 147.474 67.6534 148.214 69.2251C149.242 71.4085 150.076 73.6861 151.151 75.8451C155.831 85.2472 151.42 94.6888 146.834 99.7239C146.318 100.289 145.57 100.644 144.693 101.266C140.363 96.1551 139.457 90.1769 139.032 83.9616C138.682 85.6519 138.282 87.3346 137.989 89.0362C137.441 92.2267 137.987 95.1481 140.15 97.6986C141.455 99.2364 142.609 100.9 143.868 102.478C149.812 109.926 148.345 121.417 144.168 127.938C143.827 128.468 143.234 128.839 142.37 129.649C140.783 127.795 139.162 126.223 137.919 124.391C132.747 116.768 132.29 108.445 134.163 99.658C138.412 79.7264 142.579 59.7778 146.568 39.7935C148.086 32.1872 149.025 24.466 150.228 16.7975C150.505 16.8389 150.782 16.8822 151.058 16.9255Z" fill="#CA8A04"/>
<path d="M71.5595 278.836C73.0469 277.388 74.5342 275.939 76.2738 274.245C78.6931 281.029 79.2372 287.692 74.954 293.753C72.5837 297.105 72.4576 300.13 74.2217 303.445C80.2105 314.703 86.0582 326.046 92.3747 337.117C100.163 350.768 108.349 364.192 116.419 377.681C117.769 379.938 118.81 382.183 118.307 384.888C115.46 382.366 75.532 312.151 69.6768 299.342C65.7458 300.537 62.1423 299.396 58.7515 297.371C54.1785 294.638 51.3036 290.521 49.0971 285.143C51.4805 285.471 53.4819 285.746 55.4832 286.021C49.5451 282.954 45.3505 278.531 42.8088 271.877C46.1506 272.342 48.9069 272.62 51.6218 273.127C57.3527 274.196 62.3795 280.238 62.3983 286.128C61.2329 286.128 60.0675 286.128 58.5388 286.128C60.6098 287.528 62.5395 288.522 64.057 289.951C65.5951 291.398 66.7266 293.279 67.9071 294.801C67.9071 293.147 67.9542 291.3 67.8977 289.456C67.7715 285.369 69.8331 282.073 71.6913 278.697L71.5595 278.836Z" fill="#CA8A04"/>
<path d="M90.9174 205.195C90.6388 207.286 90.4204 209.387 90.0721 211.465C84.3355 245.762 90.411 277.727 108.991 307.215C111.356 310.969 113.777 314.694 116.345 318.311C117.893 320.493 118.657 322.71 118.529 325.417C118.346 329.272 118.482 333.142 118.482 337.42C117.793 336.848 117.411 336.664 117.228 336.359C107.854 320.815 98.9076 305.049 92.6081 287.946C88.6789 277.283 86.3707 266.257 86.1147 254.895C85.9076 245.76 85.8511 236.605 86.2446 227.481C86.5703 219.875 88.2045 212.41 90.9174 205.195Z" fill="#CA8A04"/>
<path d="M53 361C87.0679 386.81 106.425 428.435 120 477C116.047 477 112.416 477 108.45 477C104.546 453.712 99.3492 430.987 89.6113 410.699C79.9627 390.604 67.2308 374.741 53 361Z" fill="#CA8A04"/>
<path d="M138.137 169.977C129.678 166.555 124.441 160.823 121.643 152.825C119.248 145.981 118.883 138.936 119.649 131.744C120.732 121.592 121.814 111.43 122.49 101.247C123.614 84.3456 124.414 67.4238 125.422 50.502C125.422 57.0335 125.582 63.5689 125.384 70.0948C125.107 79.2333 124.678 88.3719 124.1 97.4972C123.616 105.139 122.807 112.759 122.182 120.392C121.807 124.947 121.483 129.506 121.184 134.066C120.973 137.287 122.078 139.8 125.16 141.251C126.126 141.705 126.954 142.443 127.897 142.955C136.776 147.77 139.813 155.63 139.404 165.205C139.339 166.696 138.636 168.16 138.137 169.977Z" fill="#CA8A04"/>
<path d="M149.895 112.343C147.818 106.333 148.878 101.013 151.043 95.8954C152.642 92.1177 155.276 89.0439 158.941 86.9903C159.527 86.6628 160.048 86.1734 160.67 85.9588C167.476 83.589 169.91 78.3223 171.113 71.6383C173.487 58.449 176.206 45.3163 179.133 32.2381C181.558 21.4036 184.488 10.682 187.831 0C187.737 0.7868 187.713 1.59054 187.539 2.35852C183.448 20.3796 179.203 38.3687 175.289 56.4275C173.018 66.9062 171.305 77.5054 169.292 88.0406C167.321 98.3575 162.466 106.643 152.61 111.321C151.896 111.66 151.132 111.882 149.895 112.343Z" fill="#CA8A04"/>
<path d="M194.453 72.4137C194.295 73.016 194.185 73.6372 193.969 74.2169C185.532 96.8082 178.414 119.823 171.843 143.015C170.072 149.27 167.528 155.165 163.477 160.292C158.228 166.935 151.501 170.946 142.878 171.372C142.479 171.39 142.07 171.381 141.679 171.31C141.432 171.264 141.212 171.078 140.72 170.814C140.673 170.208 140.415 169.403 140.583 168.697C142.643 160.008 149.061 151.096 160.336 150.239C165.693 149.833 169.031 147.664 170.559 142.017C173.598 130.784 177.122 119.669 180.803 108.625C184.569 97.3278 188.759 86.1695 192.781 74.9567C193.112 74.0306 193.575 73.1497 193.976 72.248C194.135 72.3045 194.293 72.3591 194.453 72.4137Z" fill="#CA8A04"/>
<path d="M113.267 73.7427C113.613 78.5614 114.159 83.3744 114.272 88.1968C114.694 106.212 115.91 124.218 114.76 142.26C114.479 146.663 115.108 151.12 115.227 155.555C115.272 157.256 116.099 158.318 117.486 159.075C119.962 160.424 122.445 161.757 124.925 163.097C133.344 167.647 136.257 178.383 135.268 185.576C135.183 186.195 134.733 186.761 134.293 187.695C130.351 186.688 127.043 184.796 124.128 182.202C117.422 176.236 114.269 168.424 113.702 159.754C113.186 151.852 113.662 143.89 113.574 135.954C113.361 116.99 113.071 98.0262 112.819 79.062C112.796 77.3247 112.815 75.5873 112.815 73.85C112.966 73.8142 113.116 73.7784 113.267 73.7427Z" fill="#CA8A04"/>
<path d="M136.492 35.0012C136.049 40.202 135.718 45.4141 135.136 50.5998C134.268 58.336 133.318 66.0647 132.231 73.7727C131.128 81.605 129.761 89.3996 128.618 97.2261C127.805 102.796 127.199 108.394 126.45 113.973C126.167 116.072 126.909 117.608 128.618 118.795C130.384 120.021 132.085 121.344 133.839 122.586C141.619 128.086 143.962 138.527 141.743 146.751C141.547 147.478 140.997 148.108 140.451 149.065C136.33 147.466 133.227 144.816 130.616 141.55C126.344 136.208 124.648 129.935 124.13 123.243C123.614 116.595 124.983 110.127 125.994 103.632C128.054 90.3859 130.322 77.1722 132.26 63.9095C133.674 54.2326 134.692 44.4974 135.886 34.7866C136.087 34.8581 136.29 34.9297 136.492 35.0012Z" fill="#CA8A04"/>
<path d="M137.286 190.46C137.091 181.832 144.51 172.573 153.094 170.472C155.695 169.836 158.346 169.256 161.007 169.032C163.863 168.791 165.365 167.291 166.214 164.774C168.313 158.553 170.364 152.314 172.551 146.121C178.529 129.191 184.563 112.283 190.591 95.3722C190.847 94.6513 191.278 93.9925 192.035 93.4485C191.764 94.4179 191.576 95.4193 191.211 96.351C182.569 118.319 175.462 140.805 168.599 163.374C166.623 169.879 163.701 175.876 159.173 181.009C153.845 187.048 147.206 190.415 139.094 190.69C138.58 190.71 138.064 190.566 137.286 190.46Z" fill="#CA8A04"/>
<path d="M197 52.5951C195.347 57.2331 193.739 61.888 192.033 66.5071C185.154 85.1268 179.785 104.219 174.244 123.256C172.274 130.025 169.443 136.342 164.821 141.778C159.988 147.463 153.879 150.746 146.529 151.758C145.501 151.899 144.439 151.777 143.185 151.777C143.047 150.785 142.718 149.978 142.87 149.272C144.665 140.986 150.863 132.096 161.238 130.788C161.901 130.705 162.541 130.468 163.2 130.338C170.482 128.911 170.646 128.965 172.954 121.818C176.987 109.331 180.632 96.7199 184.747 84.261C188.315 73.4641 192.31 62.8103 196.117 52.0925C196.413 52.2619 196.706 52.4276 197 52.5951Z" fill="#CA8A04"/>
<path d="M150.025 131.926C148.344 129.647 148.978 126.874 149.43 124.362C150.902 116.175 155.046 109.785 163.151 106.858C168.952 104.763 172.248 101.098 173.815 95.0297C176.857 83.2409 180.385 71.5706 183.943 59.923C186.754 50.7261 189.912 41.6365 193.511 32.6184C193.511 33.1982 193.673 33.8363 193.489 34.3501C185.937 55.2812 180.308 76.7865 174.374 98.1995C173.229 102.329 172.099 106.465 170.885 110.574C167.946 120.518 162.326 128.117 152.188 131.699C151.687 131.876 151.16 131.989 150.64 132.105C150.533 132.13 150.399 132.039 150.025 131.926Z" fill="#CA8A04"/>
<path d="M30.3793 208.481C30.0385 208.122 29.7561 207.661 29.3456 207.42C24.6803 204.704 21.8657 200.579 20.2353 195.548C16.3946 183.699 12.5576 171.85 8.73951 159.995C8.63031 159.655 8.72633 159.246 9.20453 158.742C11.2586 164.735 13.3126 170.726 15.3666 176.719C15.5266 176.716 15.6867 176.714 15.8486 176.71C14.9637 166.357 14.077 156.003 13.1921 145.65C13.435 145.624 13.6759 145.598 13.9188 145.569C14.2822 149.012 14.638 152.455 15.0108 155.897C15.4852 160.296 16.0707 164.688 16.4096 169.098C16.5734 171.227 17.624 172.561 19.2525 173.666C20.0301 174.193 20.7756 174.771 21.5419 175.319C27.1655 179.347 28.9898 185.241 26.5969 192.167C23.0217 191.219 20.9074 188.506 18.7668 185.785C19.0529 189.109 19.5424 190.033 21.9542 191.3C23.2532 191.981 24.6182 192.553 25.9926 193.073C32.358 195.48 35.005 202.05 35.0841 207.501C35.0917 207.986 34.7697 208.478 34.5457 209.127C33.0263 208.854 31.6162 208.602 30.206 208.35C30.2042 208.35 30.3793 208.481 30.3793 208.481Z" fill="#CA8A04"/>
<path d="M108.457 197.445C112.55 200.355 116.803 202.917 120.504 206.117C126.885 211.632 128.014 219.095 127.114 227.035C127.016 227.895 126.399 228.697 126.041 229.484C113.7 227.058 105.86 209.343 108.457 197.445Z" fill="#CA8A04"/>
<path d="M124.849 250.872C125.017 249.171 124.891 247.658 125.341 246.34C128.321 237.608 133.756 231.487 143.309 229.855C146.715 229.273 150.096 228.552 153.517 227.89C151.256 240.16 138.149 251.708 124.849 250.872Z" fill="#CA8A04"/>
<path d="M121.656 251.211C109.993 246.735 103.579 230.613 106.824 217.836C108.967 219.581 111.019 221.217 113.033 222.901C115.084 224.618 117.403 226.13 119.068 228.168C124.089 234.321 125.06 241.425 123.176 249.011C123.049 249.517 122.756 249.999 122.46 250.439C122.251 250.752 121.909 250.974 121.656 251.211Z" fill="#CA8A04"/>
<path d="M128.223 231.005C128.349 229.898 128.304 228.706 128.635 227.63C131.441 218.51 136.899 212.131 146.741 210.356C150.125 209.746 153.498 209.097 156.932 208.455C154.713 221.362 139.9 233.169 128.223 231.005Z" fill="#CA8A04"/>
<path d="M130.012 209.279C117.686 205.741 109.438 191.701 110.577 177.728C115.449 180.894 120.474 183.452 124.616 187.031C130.029 191.708 131.42 198.388 131.309 205.353C131.298 206.006 131.064 206.669 130.857 207.301C130.654 207.915 130.351 208.498 130.012 209.279Z" fill="#CA8A04"/>
<path d="M161.893 187.494C157.996 200.928 146.082 211.387 133.331 210.668C132.452 208.895 132.821 207.09 133.506 205.332C136.797 196.903 142.163 190.934 151.7 189.67C154.978 189.233 158.19 188.299 161.893 187.494Z" fill="#CA8A04"/>
<path d="M170 369C151.356 400.863 145.051 436.931 149.175 476.561C148.118 476.78 147.607 476.972 147.095 476.979C144.929 477.014 142.761 476.994 140 476.994C140.539 457.122 142.849 437.894 147.569 419.372C152.338 400.649 159.581 383.582 170 369Z" fill="#CA8A04"/>
<path d="M0 301.871C9.67143 298.969 19.6158 299.598 29.5527 300.036C42.4699 300.605 54.619 304.397 66.6777 308.672C70.4958 310.025 73.6456 311.895 75.581 315.663C76.9685 318.366 78.8041 320.841 80.2689 323.697C56.5864 304.994 29.5979 298.831 0 301.871Z" fill="#CA8A04"/>
<path d="M36.0123 193.967C37.2643 192.116 38.4033 190.174 39.7965 188.437C41.9352 185.771 42.1555 182.91 41.3422 179.733C39.6515 173.126 38.0569 166.497 36.4547 159.867C36.2118 158.86 36.1309 157.814 36.5564 156.66C38.8062 165.591 41.0824 174.517 43.2908 183.46C44.0269 186.445 44.6953 189.455 45.2074 192.485C46.209 198.424 44.3526 203.685 39.7061 208.278C37.0553 206.247 36.3662 203.269 36.0499 200.25C35.8278 198.132 36.1007 195.964 36.1535 193.818C36.1535 193.82 36.0123 193.967 36.0123 193.967Z" fill="#CA8A04"/>
<path d="M42.5019 221.738C39.0603 217.797 40.4441 208.57 44.3037 205.181C45.0097 204.562 45.6272 203.79 46.4273 203.337C50.1306 201.227 50.4243 198.023 49.5357 194.339C48.3759 189.53 47.2576 184.71 46.1638 179.885C45.6404 177.574 45.213 175.24 45.4634 172.763C47.1823 180.139 48.8579 187.527 50.6371 194.889C51.7817 199.625 52.4388 204.344 51.4014 209.2C50.2229 214.713 47.3781 218.918 42.5019 221.738Z" fill="#CA8A04"/>
<path d="M51.1831 187.177C53.079 195.505 55.325 203.772 56.7597 212.178C57.9269 219.02 56.6599 225.621 51.4542 230.845C50.3472 231.955 49.0236 232.851 47.8018 233.847C45.1076 230.498 44.7443 224.601 47.2275 220.462C48.5078 218.331 50.3604 216.43 52.292 214.832C54.5776 212.94 55.726 211.192 54.8374 207.982C53.303 202.443 52.3127 196.754 51.1172 191.123C50.8499 189.863 50.6842 188.581 50.4714 187.311C50.7087 187.266 50.9459 187.222 51.1831 187.177Z" fill="#CA8A04"/>
<path d="M19.7495 209.178C21.3762 212.807 22.9087 216.481 24.701 220.025C25.0757 220.767 26.3597 221.294 27.3029 221.458C29.5433 221.845 31.8496 221.847 34.0994 222.203C39.5179 223.058 44.1775 228.019 44.957 234.005C39.4557 234.948 34.6492 233.339 30.6277 229.834C28.1445 227.671 25.825 225.021 24.2925 222.132C21.1672 216.24 18.618 210.043 15.8617 203.958C15.713 203.63 15.8504 203.173 15.8561 202.776L15.7845 202.838C16.5 203.973 17.2173 205.108 17.9327 206.243C18.5804 207.267 19.228 208.291 19.8757 209.315L19.7495 209.178Z" fill="#CA8A04"/>
<path d="M36.1534 193.82C35.2064 194.677 34.2613 195.533 32.8926 196.772C32.0341 195.665 30.976 194.684 30.3886 193.476C27.8865 188.335 27.6531 183.198 30.8141 178.176C31.4542 177.158 31.972 176.063 32.6027 175.037C33.5045 173.57 33.6231 172.147 33.0376 170.463C31.4599 165.924 30.0629 161.324 28.6019 156.745C28.3271 155.882 28.0993 155.005 28.3553 153.919C28.7337 154.693 29.2006 155.438 29.4774 156.248C31.891 163.325 34.3479 170.387 36.6316 177.506C38.183 182.338 38.424 187.221 36.353 192.034C36.1026 192.617 36.1196 193.318 36.0122 193.963C36.0122 193.967 36.1534 193.82 36.1534 193.82Z" fill="#CA8A04"/>
<path d="M19.8776 209.315C18.6519 205.812 17.415 202.315 16.2082 198.806C15.7055 197.344 15.2668 195.86 15.5022 194.157C16.7334 197.323 17.9949 200.478 19.1828 203.661C20.1618 206.285 21.6755 207.96 24.7895 207.86C26.644 207.8 28.5154 208.255 30.3793 208.479L30.2042 208.348C34.7867 210.872 38.3883 214.25 39.8266 219.485C39.9283 219.854 39.885 220.264 39.9208 220.859C38.1454 221.712 36.3681 221.394 34.572 220.98C29.2007 219.743 25.2564 216.545 22.1839 212.093C21.4666 211.054 20.5666 210.145 19.7514 209.174L19.8776 209.315Z" fill="#CA8A04"/>
<path d="M49.05 245.178C38.6895 248.369 28.1859 240.213 23.6636 228.13C24.6144 229.224 25.1152 229.572 25.2978 230.045C26.8247 233.969 29.7956 234.73 33.6721 234.417C40.655 233.854 45.3806 237.408 48.5341 243.373C48.7713 243.823 48.824 244.369 49.05 245.178Z" fill="#CA8A04"/>
<path d="M65.1715 268.944C63.5788 270.107 61.9879 271.269 60.205 272.569C58.0154 270.019 58.2074 267.211 58.2884 264.468C58.503 257.298 64.1643 254.059 69.0047 249.717C70.3546 255.292 69.5997 260.284 67.2971 265.123C66.7869 266.196 66.2654 267.265 65.7495 268.336C65.5575 268.538 65.3636 268.741 65.1715 268.944Z" fill="#CA8A04"/>
<path d="M65.1715 268.944C65.3636 268.741 65.5575 268.54 65.7495 268.336C68.2177 266.415 70.6841 264.493 73.5081 262.294C74.4909 266.928 74.0805 271.034 72.7098 275.099C72.2938 276.334 71.9417 277.592 71.5595 278.838L71.6913 278.698C70.5692 279.777 69.4885 280.901 68.3156 281.921C67.1446 282.939 65.8813 283.854 64.313 285.085C61.937 280.5 62.2948 276.378 63.7105 272.221C64.0946 271.092 64.6783 270.034 65.1715 268.944Z" fill="#CA8A04"/>
<path d="M57.8967 241.491C55.9557 243.033 54.0146 244.572 51.9192 246.236C49.8689 243.449 49.6204 240.723 50.0045 237.924C50.7463 232.524 52.2223 230.657 60.7754 223.897C61.986 225.697 61.6678 227.647 61.6151 229.565C61.4946 233.964 59.7117 237.821 57.7574 241.627L57.8967 241.491Z" fill="#CA8A04"/>
<path d="M57.7574 241.628C59.9903 240.077 62.2251 238.526 64.4429 236.985C67.4515 244.891 63.3133 255.369 55.5039 258.944C52.9151 253.971 53.5571 249.216 56.1835 244.522C56.7502 243.509 57.3263 242.5 57.8986 241.491L57.7574 241.628Z" fill="#CA8A04"/>
<path d="M37.3697 259.697C40.2935 259.889 43.223 259.894 46.0941 260.306C52.1621 261.176 57.4167 266.808 57.5673 272.338C49.8783 274.192 40.0582 268.067 37.3697 259.697Z" fill="#CA8A04"/>
<path d="M53.3858 259.038C46.1393 261.526 35.9954 256.369 32.3467 248.008C35.5623 248.008 38.8853 247.768 42.1593 248.062C47.3424 248.529 52.3071 253.573 53.3858 259.038Z" fill="#CA8A04"/>
<path d="M15.858 202.774C14.9656 201.219 14.0016 199.702 13.1958 198.106C10.8255 193.404 8.51734 188.668 6.48779 183.801C9.75051 190.069 13.8586 195.919 15.7846 202.836L15.858 202.774Z" fill="#CA8A04"/>
</g>
<defs>
<clipPath id="clip0_17_1710">
<rect width="197" height="475" fill="white"/>
</clipPath>
</defs>
</svg>
