<svg width="113" height="40" viewBox="0 0 113 40" fill="none" xmlns="http://www.w3.org/2000/svg">
<g clip-path="url(#clip0)">
<path d="M1.5641 36.157C1.5641 36.3872 1.57372 36.5503 1.58816 36.6559C1.6026 36.7614 1.63147 36.843 1.66516 36.9053C1.69885 36.9677 1.75179 37.0157 1.82398 37.0589C1.89617 37.102 2.00686 37.1404 2.16567 37.1836V37.433H0V37.1836C0.211755 37.1308 0.35132 37.0685 0.423509 37.0013C0.495699 36.9341 0.543825 36.8382 0.563075 36.7183C0.587138 36.5935 0.596763 36.4064 0.596763 36.157V31.7386C0.596763 31.5036 0.587138 31.3309 0.5727 31.2253C0.55345 31.1198 0.529387 31.0334 0.486073 30.9759C0.447572 30.9183 0.394634 30.8703 0.33207 30.8319C0.269506 30.7984 0.154003 30.7552 0 30.712V30.4626H2.16086V30.712C2.01167 30.7504 1.90098 30.7888 1.8336 30.8224C1.76623 30.8607 1.71329 30.9087 1.67479 30.9615C1.63629 31.019 1.60741 31.1006 1.58816 31.2157C1.56891 31.3261 1.55928 31.5036 1.55928 31.7386V36.157H1.5641Z" fill="#01448C"/>
<path d="M8.27265 37.4333H6.25135V37.1838C6.3861 37.1406 6.48236 37.1071 6.54011 37.0783C6.59786 37.0495 6.64599 37.0063 6.68449 36.9487C6.72299 36.896 6.75668 36.8096 6.77593 36.6945C6.79999 36.5793 6.80961 36.4066 6.80961 36.1764V34.8379C6.80961 34.5981 6.8048 34.3822 6.79036 34.1903C6.77593 33.9984 6.75186 33.8353 6.72299 33.7106C6.6893 33.5858 6.6508 33.4899 6.60749 33.4179C6.55936 33.346 6.50642 33.2884 6.44386 33.2404C6.38129 33.1924 6.3091 33.1541 6.22729 33.1253C6.14547 33.0965 6.0396 33.0821 5.90484 33.0821C5.77009 33.0821 5.64496 33.1109 5.52465 33.1637C5.40433 33.2164 5.27439 33.3076 5.13001 33.4371C4.98564 33.5666 4.88457 33.6962 4.8172 33.8209C4.75463 33.9456 4.72094 34.0895 4.72094 34.2574V36.162C4.72094 36.4546 4.73538 36.6609 4.76426 36.7712C4.79313 36.8864 4.84607 36.9727 4.91826 37.0303C4.99526 37.0879 5.12039 37.1406 5.29364 37.1838V37.4333H3.28197V37.1838C3.41673 37.1406 3.50817 37.1071 3.56592 37.0783C3.62367 37.0495 3.67179 37.0063 3.7103 36.9487C3.7488 36.896 3.78248 36.8096 3.80174 36.6993C3.8258 36.5889 3.83542 36.4114 3.83542 36.1716V33.9456C3.83542 33.7297 3.83061 33.5522 3.8258 33.4179C3.82099 33.2836 3.79692 33.1781 3.75361 33.0965C3.7103 33.0149 3.65254 32.9574 3.56592 32.919C3.4841 32.8806 3.36379 32.847 3.20978 32.8183V32.5496L4.40812 32.5016H4.72094L4.66319 33.3364L4.73538 33.3556C4.99045 33.1013 5.19258 32.919 5.34658 32.8087C5.50059 32.6983 5.6594 32.6168 5.81822 32.5544C5.97703 32.4968 6.14547 32.4633 6.32354 32.4633C6.50642 32.4633 6.67486 32.4824 6.81924 32.5256C6.96362 32.5688 7.09356 32.636 7.20425 32.7223C7.31494 32.8087 7.40638 32.919 7.47857 33.0533C7.55076 33.1829 7.60369 33.3412 7.6422 33.5283C7.67588 33.7106 7.69513 33.9456 7.69513 34.2287V36.1572C7.69513 36.3923 7.69995 36.565 7.71438 36.6705C7.72882 36.776 7.75289 36.8576 7.78657 36.9152C7.82026 36.9727 7.86839 37.0207 7.93576 37.0591C7.99833 37.0975 8.11383 37.1406 8.27265 37.1838V37.4333Z" fill="#01448C"/>
<path d="M11.7716 33.0628H10.5444V36.1523C10.5444 36.3825 10.554 36.5504 10.5781 36.6704C10.6021 36.7855 10.631 36.8719 10.6743 36.9342C10.7176 36.9918 10.7754 37.0398 10.8428 37.0781C10.9149 37.1117 11.0256 37.1501 11.1796 37.1837V37.4331H9.08134V37.1837C9.23053 37.1405 9.34122 37.1021 9.40378 37.0685C9.46635 37.0302 9.51929 36.9822 9.55297 36.9246C9.58666 36.8671 9.61554 36.7855 9.63479 36.6752C9.65404 36.5648 9.65885 36.3921 9.65885 36.1571V33.0676H9.04765V32.8085C9.17759 32.7893 9.26422 32.7702 9.30753 32.7606C9.35084 32.751 9.38935 32.7318 9.43266 32.7078C9.47116 32.6838 9.50485 32.6502 9.53372 32.607C9.5626 32.5639 9.58666 32.4967 9.61073 32.4104C9.63479 32.324 9.64923 32.2041 9.66366 32.0458C9.69254 31.6764 9.75992 31.3741 9.86579 31.1391C9.97167 30.9088 10.1209 30.7121 10.323 30.5442C10.5251 30.3811 10.7369 30.266 10.9631 30.1988C11.1893 30.1316 11.4588 30.0981 11.7668 30.0981C12.0363 30.0981 12.2673 30.1172 12.455 30.1556V31.0815H11.9497C11.8871 30.88 11.8101 30.7361 11.7235 30.6545C11.6368 30.573 11.5165 30.5298 11.3577 30.5298C11.247 30.5298 11.1508 30.5442 11.0738 30.5778C10.9968 30.6066 10.9246 30.6545 10.862 30.7217C10.7994 30.7889 10.7417 30.8752 10.6936 30.9808C10.6454 31.0911 10.6117 31.2254 10.5925 31.3885C10.5684 31.5516 10.5588 31.7627 10.5588 32.0218V32.5591H11.786V33.0628H11.7716Z" fill="#01448C"/>
<path d="M14.4189 37.5148C13.7067 37.5148 13.1676 37.3085 12.7923 36.8912C12.4169 36.4738 12.2292 35.855 12.2292 35.0394C12.2292 34.4781 12.3254 34.0032 12.5228 33.6146C12.7201 33.226 12.9896 32.9382 13.3313 32.7463C13.673 32.5592 14.0628 32.4633 14.5007 32.4633C15.2323 32.4633 15.7857 32.6743 16.1611 33.1013C16.5365 33.5235 16.7242 34.1327 16.7242 34.9291C16.7242 35.4952 16.6279 35.9701 16.4402 36.3587C16.2525 36.7473 15.9878 37.0399 15.6413 37.2318C15.2948 37.4189 14.8906 37.5148 14.4189 37.5148ZM13.1965 34.9291C13.1965 35.6295 13.3072 36.1716 13.5334 36.5458C13.7548 36.92 14.0772 37.1118 14.4959 37.1118C14.7269 37.1118 14.9194 37.0543 15.0782 36.9439C15.2371 36.8336 15.3718 36.6849 15.4681 36.4978C15.5691 36.3107 15.6413 36.0948 15.6846 35.8454C15.728 35.6007 15.752 35.3416 15.752 35.073C15.752 34.5741 15.6943 34.1567 15.5836 33.8257C15.4729 33.4947 15.3237 33.2548 15.1312 33.0965C14.9387 32.943 14.7221 32.8662 14.4767 32.8662C14.0628 32.8662 13.7452 33.0437 13.5238 33.4035C13.3072 33.7585 13.1965 34.267 13.1965 34.9291Z" fill="#01448C"/>
<path d="M23.5913 33.6771C23.5913 34.91 23.2545 35.8551 22.5855 36.5075C21.9166 37.1599 20.9492 37.4862 19.6883 37.4862H17.6141V30.0119H19.9097C21.0744 30.0119 21.9791 30.3334 22.624 30.9762C23.2689 31.619 23.5913 32.5209 23.5913 33.6771ZM22.6673 33.7059C22.6673 32.732 22.4219 31.998 21.931 31.5039C21.4401 31.0098 20.7134 30.7651 19.7461 30.7651H18.4804V36.733H19.5391C20.5787 36.733 21.3583 36.4787 21.8829 35.9702C22.4074 35.4569 22.6673 34.7037 22.6673 33.7059Z" fill="#01448C"/>
<path d="M27.5038 37.587C26.6712 37.587 26.0167 37.3327 25.5403 36.829C25.059 36.3253 24.8184 35.6249 24.8184 34.7278C24.8184 33.8259 25.0397 33.1063 25.4873 32.5786C25.9349 32.0461 26.5317 31.7823 27.2824 31.7823C27.9851 31.7823 28.5433 32.0125 28.9524 32.4731C29.3615 32.9336 29.5684 33.5429 29.5684 34.3008V34.8381H25.6991C25.7183 35.4954 25.8819 35.9943 26.1996 36.3349C26.5172 36.6755 26.96 36.8482 27.5327 36.8482C28.1391 36.8482 28.7358 36.7235 29.3278 36.4692V37.2272C29.0294 37.3567 28.7406 37.4479 28.4759 37.5055C28.2064 37.5582 27.884 37.587 27.5038 37.587ZM27.2728 32.4923C26.8204 32.4923 26.4643 32.641 26.1948 32.9336C25.9253 33.2262 25.7664 33.634 25.7231 34.1521H28.6588C28.6588 33.6196 28.5385 33.2071 28.2979 32.924C28.0621 32.6314 27.7204 32.4923 27.2728 32.4923Z" fill="#01448C"/>
<path d="M32.2494 37.4815L30.1174 31.883H31.0318L32.2398 35.2027C32.5141 35.9799 32.6729 36.4836 32.721 36.7139H32.7643C32.8028 36.5316 32.9183 36.1574 33.1205 35.5913C33.3226 35.0252 33.7702 33.7875 34.468 31.8782H35.3824L33.2504 37.4767H32.2494V37.4815Z" fill="#01448C"/>
<path d="M38.6545 37.587C37.8219 37.587 37.1674 37.3327 36.6909 36.829C36.2097 36.3253 35.969 35.6249 35.969 34.7278C35.969 33.8259 36.1904 33.1063 36.638 32.5786C37.0856 32.0461 37.6823 31.7823 38.4331 31.7823C39.1357 31.7823 39.694 32.0125 40.1031 32.4731C40.5121 32.9336 40.7191 33.5429 40.7191 34.3008V34.8381H36.8498C36.869 35.4954 37.0326 35.9943 37.3503 36.3349C37.6679 36.6755 38.1107 36.8482 38.6834 36.8482C39.2897 36.8482 39.8865 36.7235 40.4785 36.4692V37.2272C40.1801 37.3567 39.8913 37.4479 39.6266 37.5055C39.3571 37.5582 39.0299 37.587 38.6545 37.587ZM38.4235 32.4923C37.9711 32.4923 37.615 32.641 37.3455 32.9336C37.0759 33.2262 36.9171 33.634 36.8738 34.1521H39.8095C39.8095 33.6196 39.6892 33.2071 39.4486 32.924C39.2079 32.6314 38.8662 32.4923 38.4235 32.4923Z" fill="#01448C"/>
<path d="M43.0196 37.4813H42.1678V29.5322H43.0196V37.4813Z" fill="#01448C"/>
<path d="M49.6706 34.6795C49.6706 35.591 49.4396 36.3058 48.9775 36.8191C48.5155 37.3324 47.8803 37.5867 47.0669 37.5867C46.5664 37.5867 46.1189 37.4716 45.729 37.2317C45.3392 36.9966 45.0408 36.6608 44.8291 36.2195C44.6173 35.7781 44.5115 35.2648 44.5115 34.6747C44.5115 33.7632 44.7425 33.0484 45.1997 32.5399C45.6569 32.0314 46.2921 31.7771 47.1054 31.7771C47.8899 31.7771 48.5155 32.0362 48.9775 32.5591C49.4396 33.082 49.6706 33.7872 49.6706 34.6795ZM45.3922 34.6795C45.3922 35.3943 45.5365 35.9412 45.8205 36.3154C46.1092 36.6896 46.5279 36.8767 47.0862 36.8767C47.6445 36.8767 48.068 36.6896 48.3567 36.3154C48.6455 35.9412 48.7899 35.3943 48.7899 34.6795C48.7899 33.9695 48.6455 33.4274 48.3567 33.058C48.068 32.6886 47.6396 32.5015 47.0766 32.5015C46.5183 32.5015 46.0996 32.6838 45.8157 33.0484C45.5317 33.413 45.3922 33.9551 45.3922 34.6795Z" fill="#01448C"/>
<path d="M53.7762 37.587C53.4105 37.587 53.0784 37.5198 52.7752 37.3855C52.472 37.2512 52.217 37.0449 52.0148 36.7667H51.9523C51.9956 37.0929 52.0148 37.4047 52.0148 37.6973V40.0001H51.163V31.883H51.856L51.9715 32.6506H52.0148C52.2314 32.3435 52.4865 32.1229 52.78 31.9885C53.0688 31.8542 53.4057 31.7823 53.7811 31.7823C54.527 31.7823 55.0997 32.0365 55.504 32.545C55.9082 33.0535 56.1104 33.7635 56.1104 34.6798C56.1104 35.6009 55.9034 36.3157 55.4943 36.8242C55.0805 37.3327 54.5078 37.587 53.7762 37.587ZM53.6511 32.5019C53.0784 32.5019 52.6597 32.6602 52.4046 32.9768C52.1496 33.2934 52.0148 33.7971 52.01 34.4879V34.675C52.01 35.4618 52.14 36.0231 52.4046 36.3637C52.6693 36.7043 53.088 36.8722 53.6704 36.8722C54.1564 36.8722 54.5366 36.6755 54.811 36.2821C55.0853 35.8888 55.2248 35.3515 55.2248 34.6606C55.2248 33.9602 55.0853 33.4277 54.811 33.0535C54.5414 32.6889 54.1516 32.5019 53.6511 32.5019Z" fill="#01448C"/>
<path d="M59.9648 37.587C59.137 37.587 58.4777 37.3327 58.0012 36.829C57.52 36.3253 57.2794 35.6249 57.2794 34.7278C57.2794 33.8259 57.5007 33.1063 57.9483 32.5786C58.3959 32.0461 58.9926 31.7823 59.7434 31.7823C60.446 31.7823 61.0043 32.0125 61.4134 32.4731C61.8225 32.9336 62.0294 33.5429 62.0294 34.3008V34.8381H58.1601C58.1793 35.4954 58.3429 35.9943 58.6606 36.3349C58.9782 36.6755 59.421 36.8482 59.9937 36.8482C60.6 36.8482 61.1968 36.7235 61.7888 36.4692V37.2272C61.4904 37.3567 61.2016 37.4479 60.9369 37.5055C60.6674 37.5582 60.345 37.587 59.9648 37.587ZM59.7386 32.4923C59.2862 32.4923 58.9301 32.641 58.6606 32.9336C58.3911 33.2262 58.2322 33.634 58.1841 34.1521H61.1198C61.1198 33.6196 60.9995 33.2071 60.7589 32.924C60.523 32.6314 60.1814 32.4923 59.7386 32.4923Z" fill="#01448C"/>
<path d="M66.0433 31.7823C66.2936 31.7823 66.5149 31.8014 66.7122 31.8446L66.5967 32.6314C66.3657 32.5786 66.1588 32.5546 65.9807 32.5546C65.5283 32.5546 65.1385 32.7369 64.8161 33.1063C64.4936 33.4757 64.33 33.9315 64.33 34.4831V37.4863H63.4782V31.883H64.1808L64.2771 32.9192H64.3204C64.5273 32.5546 64.7776 32.2716 65.076 32.0749C65.3695 31.8782 65.692 31.7823 66.0433 31.7823Z" fill="#01448C"/>
<path d="M71.3898 35.9557C71.3898 36.4786 71.1973 36.8768 70.8075 37.1598C70.4177 37.4429 69.8691 37.582 69.1664 37.582C68.4205 37.582 67.843 37.4668 67.4243 37.227V36.4402C67.6938 36.5745 67.9826 36.6849 68.2954 36.7616C68.6034 36.8384 68.9017 36.8768 69.1905 36.8768C69.6332 36.8768 69.9749 36.8048 70.2156 36.6657C70.4562 36.5266 70.5765 36.3107 70.5765 36.0181C70.5765 35.8022 70.4802 35.6151 70.2926 35.4568C70.1049 35.3033 69.7343 35.121 69.1809 34.9051C68.6563 34.7132 68.2858 34.5405 68.0644 34.3966C67.843 34.2526 67.6794 34.0895 67.5735 33.9024C67.4676 33.7201 67.4099 33.4995 67.4099 33.2452C67.4099 32.7895 67.5976 32.4297 67.9681 32.1658C68.3387 31.902 68.8536 31.7676 69.4985 31.7676C70.1049 31.7676 70.692 31.8924 71.2695 32.137L70.9663 32.8278C70.4032 32.5976 69.8931 32.4824 69.4359 32.4824C69.0317 32.4824 68.7285 32.5448 68.5216 32.6695C68.3146 32.7943 68.2136 32.9718 68.2136 33.1924C68.2136 33.3412 68.2521 33.4707 68.3291 33.5762C68.4061 33.6818 68.5312 33.7825 68.6996 33.8785C68.8681 33.9744 69.2001 34.1135 69.6814 34.291C70.3455 34.5309 70.7979 34.7756 71.0337 35.0202C71.2743 35.2745 71.3898 35.5863 71.3898 35.9557Z" fill="#01448C"/>
<path d="M80.3802 32.1899C80.3802 32.9479 80.1203 33.5284 79.6054 33.9361C79.0856 34.3439 78.3493 34.5454 77.382 34.5454H76.5013V37.4814H75.6302V30.0119H77.5745C79.4417 30.0119 80.3802 30.7363 80.3802 32.1899ZM76.5013 33.797H77.2857C78.0557 33.797 78.6188 33.6723 78.9605 33.4228C79.307 33.1734 79.4802 32.7752 79.4802 32.2283C79.4802 31.7342 79.3166 31.3648 78.9942 31.1249C78.6717 30.885 78.1616 30.7603 77.4782 30.7603H76.5061V33.797H76.5013Z" fill="#01448C"/>
<path d="M83.0507 37.4815L80.9188 31.883H81.8331L83.0411 35.2027C83.3154 35.9799 83.4742 36.4836 83.5223 36.7139H83.5657C83.6042 36.5316 83.7197 36.1574 83.9218 35.5913C84.1239 35.0252 84.5715 33.7875 85.2693 31.8782H86.1837L84.0517 37.4767H83.0507V37.4815Z" fill="#01448C"/>
<path d="M88.8933 36.8866C89.0425 36.8866 89.1869 36.877 89.3313 36.853C89.4708 36.829 89.5815 36.8098 89.6633 36.7858V37.4335C89.5719 37.4767 89.4371 37.515 89.2543 37.5438C89.0762 37.5726 88.9126 37.587 88.7682 37.587C87.6805 37.587 87.1367 37.0161 87.1367 35.8744V32.5402H86.333V32.1324L87.1367 31.7774L87.4977 30.5829H87.9885V31.883H89.62V32.5402H87.9885V35.836C87.9885 36.1718 88.0704 36.4308 88.2292 36.6131C88.3928 36.7954 88.6142 36.8866 88.8933 36.8866Z" fill="#01448C"/>
<path d="M90.66 36.944C90.66 36.7138 90.713 36.541 90.814 36.4259C90.9199 36.306 91.0691 36.2484 91.2616 36.2484C91.4589 36.2484 91.6129 36.306 91.7236 36.4259C91.8343 36.541 91.892 36.7185 91.892 36.944C91.892 37.1647 91.8343 37.3374 91.7236 37.4573C91.6129 37.5773 91.4589 37.6348 91.2616 37.6348C91.0883 37.6348 90.944 37.5821 90.8285 37.4717C90.7178 37.3614 90.66 37.1887 90.66 36.944Z" fill="#01448C"/>
<path d="M96.4299 37.4814V30.0119H97.301V36.6946H100.607V37.4814H96.4299Z" fill="#01448C"/>
<path d="M103.567 36.8866C103.717 36.8866 103.861 36.877 104.005 36.853C104.145 36.829 104.256 36.8098 104.337 36.7858V37.4335C104.246 37.4767 104.111 37.515 103.928 37.5438C103.75 37.5726 103.587 37.587 103.442 37.587C102.355 37.587 101.811 37.0161 101.811 35.8744V32.5402H101.007V32.1324L101.811 31.7774L102.172 30.5829H102.663V31.883H104.294V32.5402H102.663V35.836C102.663 36.1718 102.744 36.4308 102.903 36.6131C103.067 36.7954 103.283 36.8866 103.567 36.8866Z" fill="#01448C"/>
<path d="M109.28 36.7329H109.232C108.837 37.3038 108.25 37.5868 107.47 37.5868C106.734 37.5868 106.166 37.3374 105.757 36.8337C105.348 36.3347 105.146 35.6199 105.146 34.6989C105.146 33.7778 105.353 33.0582 105.762 32.5497C106.171 32.0364 106.744 31.7821 107.475 31.7821C108.236 31.7821 108.823 32.0603 109.227 32.612H109.294L109.261 32.2091L109.241 31.8157V29.537H110.093V37.4861H109.391L109.28 36.7329ZM107.576 36.8768C108.159 36.8768 108.577 36.7185 108.842 36.4019C109.102 36.0853 109.232 35.5768 109.232 34.8764V34.6989C109.232 33.9073 109.097 33.3364 108.832 33.0006C108.568 32.66 108.144 32.4921 107.562 32.4921C107.061 32.4921 106.681 32.684 106.416 33.0726C106.152 33.4612 106.017 34.0033 106.017 34.7085C106.017 35.4233 106.147 35.9654 106.412 36.33C106.681 36.6945 107.071 36.8768 107.576 36.8768Z" fill="#01448C"/>
<path d="M111.763 36.944C111.763 36.7138 111.816 36.541 111.917 36.4259C112.023 36.306 112.172 36.2484 112.365 36.2484C112.562 36.2484 112.716 36.306 112.827 36.4259C112.938 36.541 112.995 36.7185 112.995 36.944C112.995 37.1647 112.938 37.3374 112.827 37.4573C112.716 37.5773 112.562 37.6348 112.365 37.6348C112.192 37.6348 112.047 37.5821 111.932 37.4717C111.821 37.3614 111.763 37.1887 111.763 36.944Z" fill="#01448C"/>
<path d="M90.8575 28.1506C90.8575 28.0451 90.8575 27.9731 90.8575 27.906C90.8575 18.9974 90.8575 10.0935 90.8527 1.18492C90.8527 0.743572 90.9923 0.393368 91.3724 0.158299C91.82 -0.115147 92.3927 -0.0335931 92.7585 0.38857C93.1435 0.834721 93.5141 1.29526 93.8413 1.77979C94.3226 2.485 94.7557 3.21899 95.2129 3.94338C95.9926 5.17149 96.777 6.4044 97.5566 7.63251C98.6395 9.34036 99.7127 11.0482 100.8 12.756C101.854 14.4111 102.913 16.0566 103.972 17.7117C104.641 18.7575 105.305 19.8129 105.969 20.8635C106.436 21.6023 106.903 22.3363 107.139 23.195C107.48 24.4375 107.249 25.6033 106.575 26.6587C105.959 27.6277 105.011 28.141 103.861 28.1506C99.5972 28.1698 95.3332 28.1602 91.0693 28.1602C91.0067 28.1506 90.9441 28.1506 90.8575 28.1506ZM102.528 21.5351C102.528 18.8007 100.276 16.5603 97.5326 16.5603C94.7894 16.5603 92.5419 18.8055 92.5419 21.5399C92.5419 24.2744 94.7942 26.5147 97.5374 26.5147C100.281 26.5147 102.533 24.2696 102.528 21.5351Z" fill="#01448C"/>
<path d="M89.0334 28.1364C88.9323 28.1364 88.8553 28.1364 88.7783 28.1364C85.8089 28.1364 82.8444 28.1795 79.875 28.122C77.6275 28.0788 76.6024 25.7857 77.4061 24.2745C77.7767 23.5741 78.205 22.9073 78.6237 22.2356C79.4178 20.9596 80.2215 19.6883 81.0204 18.417C81.5594 17.5583 82.1032 16.6995 82.6422 15.8408C83.4459 14.5647 84.2496 13.2838 85.0533 12.0078C85.703 10.9763 86.3576 9.94491 87.0121 8.91829C87.2142 8.60166 87.4211 8.28984 87.6473 7.9924C87.8735 7.69977 88.1815 7.61821 88.4992 7.72375C88.7879 7.8197 89.0189 8.15072 89.0334 8.48173C89.0334 8.52011 89.0334 8.55849 89.0334 8.59687C89.0334 15.0253 89.0334 21.4537 89.0334 27.8869C89.0334 27.9588 89.0334 28.0308 89.0334 28.1364Z" fill="#0386D1"/>
<path d="M87.373 6.87942C86.3623 6.87462 85.5586 6.06387 85.5634 5.04684C85.5634 4.03461 86.3768 3.23346 87.3971 3.23346C88.4222 3.23346 89.2211 4.04421 89.2211 5.08043C89.2163 6.08786 88.3981 6.88421 87.373 6.87942Z" fill="#01448C"/>
</g>
<defs>
<clipPath id="clip0">
<rect width="113" height="40" fill="white"/>
</clipPath>
</defs>
</svg>
