<svg width="40" height="28" viewBox="0 0 40 28" fill="none" xmlns="http://www.w3.org/2000/svg">
<path d="M13.7457 25.8553C11.8069 26.3996 10.7189 25.8014 10.3219 23.9725C9.57296 24.1308 8.89378 23.9615 8.31438 23.4468C7.74785 22.9442 7.48712 22.2865 7.47318 21.5321C5.37983 21.1758 4.6309 19.7791 5.50858 17.8237C5.22639 17.6004 4.93669 17.3717 4.63734 17.1352C4.56652 17.2463 4.51395 17.3244 4.46459 17.4058C4.04614 18.092 3.88519 18.1349 3.21137 17.7445C2.29184 17.2133 1.37124 16.6843 0.451715 16.1531C-1.57184e-06 15.8914 -0.0643792 15.7341 0.0515006 15.215C1.11051 10.4696 2.16953 5.72297 3.22961 0.977488C3.24463 0.910402 3.26824 0.846616 3.28541 0.78063C3.44528 0.161463 3.8176 0.0228926 4.31974 0.416608C5.3294 1.20734 6.33154 2.00687 7.33691 2.8042C8.46888 3.7027 9.59442 4.60781 10.7328 5.49642C11.0536 5.74607 11.2532 6.01001 11.0762 6.41252C11.6459 6.41252 12.2039 6.45981 12.7532 6.40372C14.5343 6.22336 16.3101 5.97702 18.0933 5.82415C18.5633 5.78346 19.0526 6.00231 19.5365 6.07709C19.7296 6.10679 19.9764 6.14308 20.1234 6.0507C21.1137 5.42933 22.1191 5.38424 23.1931 5.80325C23.9903 6.11449 24.8165 6.34434 25.6277 6.61818C26.7811 7.0075 27.8627 6.79304 28.9335 6.23106C28.7403 5.77686 28.985 5.51951 29.3047 5.26657C31.4034 3.61032 33.4946 1.94528 35.5891 0.282437C36.1964 -0.20036 36.5837 -0.0661883 36.7554 0.700347C37.7307 5.05981 38.7028 9.41928 39.676 13.7798C39.7682 14.1934 39.8498 14.6102 39.9571 15.0182C40.0665 15.4328 39.971 15.7264 39.5858 15.942C38.6009 16.493 37.6277 17.0659 36.647 17.6246C36.1588 17.9029 35.926 17.8336 35.6234 17.3387C35.3981 16.9692 35.176 16.5963 34.9292 16.1883C34.1588 16.9747 33.412 17.7313 32.6727 18.4967C32.617 18.5539 32.5944 18.6694 32.5966 18.7574C32.6202 20.1354 31.6288 21.1307 30.4785 21.2109C30.427 21.2142 30.3755 21.2362 30.3273 21.2483C30.1416 23.0926 29.3251 23.8988 27.6652 23.8504C27.6094 24.6488 27.3112 25.323 26.6288 25.7706C25.9582 26.2094 25.2479 26.2138 24.4989 25.9366C24.4721 26.0136 24.4431 26.073 24.4292 26.1357C24.0933 27.7249 22.5397 28.4672 21.1438 27.6875C20.3573 27.2487 19.5826 26.7879 18.8176 26.3117C18.5762 26.1621 18.4227 26.1775 18.2318 26.3798C18.0086 26.6152 17.7554 26.8208 17.5129 27.0364C16.206 28.1967 14.3938 27.7029 13.8176 26.0312C13.7983 25.9707 13.7693 25.9124 13.7457 25.8553ZM18.2951 7.05919C18.2908 7.02839 18.2865 6.9976 18.2811 6.9657C18.1148 6.9822 17.9464 6.9888 17.7822 7.01519C15.427 7.39351 13.0558 7.58487 10.6738 7.64426C10.3981 7.65086 10.2489 7.74434 10.1084 7.98079C8.54721 10.6004 6.97532 13.2124 5.40772 15.8276C5.34764 15.9277 5.29828 16.0355 5.23927 16.1498C5.54614 16.3907 5.8412 16.604 6.11373 16.8449C6.30043 17.0088 6.42596 16.9681 6.59013 16.8119C6.95279 16.4666 7.32296 16.1289 7.70601 15.8078C8.96459 14.7542 10.7597 15.2733 11.3079 16.8405C11.338 16.9263 11.3712 17.0098 11.4077 17.1077C12.2232 16.6799 13.0204 16.6315 13.7929 17.1253C14.5515 17.6103 14.9034 18.3516 14.9367 19.2655C15.632 19.2611 16.2017 19.4865 16.6695 19.9682C17.1373 20.4499 17.3112 21.0548 17.3476 21.7245C18.2468 21.7531 18.9517 22.1139 19.3938 22.9068C19.8348 23.6986 19.7575 24.5036 19.3455 25.3021C20.1609 25.7805 20.9388 26.2611 21.7425 26.6922C21.9592 26.8088 22.265 26.8395 22.5086 26.7934C22.9678 26.7065 23.2532 26.3809 23.3283 25.8959C23.4034 25.4099 23.2028 25.0502 22.8165 24.7764C21.5097 23.8482 20.2039 22.9189 18.9034 21.9808C18.5333 21.7135 18.4592 21.4012 18.6556 21.112C18.8552 20.8172 19.1642 20.7765 19.5333 21.0295C20.2768 21.5409 21.0129 22.0622 21.7479 22.5857C22.7468 23.2961 23.7371 24.0197 24.7425 24.7214C25.4185 25.1943 26.1974 24.9589 26.4549 24.2265C26.633 23.7184 26.4635 23.2554 25.9549 22.8848C24.2446 21.6399 22.5322 20.3971 20.823 19.1511C20.4582 18.8849 20.3691 18.5341 20.5719 18.2438C20.7768 17.9512 21.117 17.9304 21.4914 18.2009C22.3112 18.7915 23.1288 19.3853 23.9453 19.9803C25.0558 20.7897 26.1609 21.6091 27.2779 22.4086C27.9549 22.8936 28.8036 22.6439 29.0762 21.9049C29.2758 21.3627 29.1137 20.8623 28.5933 20.4741C27.6202 19.7494 26.6416 19.0334 25.6663 18.3109C24.5504 17.4849 23.4335 16.6601 22.323 15.8254C21.9925 15.5769 21.941 15.2557 22.1524 14.9742C22.3541 14.7058 22.6438 14.6729 22.971 14.8917C23.1835 15.0336 23.3916 15.1831 23.5976 15.336C25.603 16.8185 27.6062 18.3021 29.6116 19.7835C30.1781 20.2014 30.897 20.0881 31.2736 19.5283C31.6234 19.0081 31.4989 18.356 30.9496 17.8963C28.3788 15.7462 25.7833 13.6259 23.2489 11.4307C22.5858 10.8567 22.1041 10.7522 21.2811 11.1283C19.4292 11.9751 17.5258 12.0004 15.6867 10.9655C15.1931 10.6884 14.8637 10.3057 14.8702 9.70302C14.8766 9.10035 15.2103 8.72753 15.7135 8.46138C16.5794 8.00718 17.4345 7.52878 18.2951 7.05919ZM34.2908 15.1139C32.72 12.4964 31.147 9.87348 29.5901 7.27914C29.5268 7.27144 29.5129 7.26484 29.5021 7.26924C29.2908 7.35502 29.0794 7.4386 28.8702 7.52988C27.6352 8.06657 26.3884 8.11276 25.1159 7.66625C24.2575 7.36492 23.3841 7.10757 22.5279 6.80074C21.9582 6.59618 21.4399 6.64677 20.9109 6.93931C19.3841 7.78503 17.8466 8.61315 16.3155 9.45117C16.1942 9.51716 16.0837 9.60624 15.9657 9.68542C16.0107 9.7657 16.0236 9.8097 16.0515 9.83279C16.1245 9.89108 16.2028 9.94497 16.2843 9.99226C17.0622 10.4432 17.9002 10.6235 18.7886 10.5817C19.9227 10.5289 20.9571 10.1407 21.9324 9.57215C22.265 9.37859 22.5397 9.38189 22.8455 9.63923C25.9303 12.2259 29.0204 14.8037 32.0891 17.3673C32.8079 16.6293 33.5354 15.8859 34.2908 15.1139ZM4.23069 1.79901C4.20064 1.88149 4.18348 1.91669 4.17596 1.95298C3.66953 4.2031 3.16094 6.45321 2.65772 8.70443C2.18991 10.7962 1.72639 12.8879 1.27146 14.9819C1.24678 15.093 1.28863 15.2964 1.36481 15.3426C2.09549 15.7869 2.84013 16.2059 3.59871 16.6425C5.68348 13.1662 7.75107 9.71841 9.83369 6.24536C7.95708 4.75628 6.103 3.28479 4.23069 1.79901ZM30.1695 6.043C32.2618 9.52816 34.3315 12.9737 36.4109 16.4369C37.1491 16.0124 37.8423 15.6011 38.5483 15.2139C38.7704 15.0919 38.794 14.972 38.7382 14.7289C38.0129 11.533 37.3036 8.33381 36.5891 5.1346C36.3283 3.96775 36.0676 2.802 35.794 1.58016C33.9013 3.08244 32.0547 4.54732 30.1695 6.043ZM12.5762 17.8534C12.3036 18.004 11.9957 18.1118 11.765 18.3131C10.8391 19.1203 9.93562 19.9528 9.0279 20.7809C8.5236 21.2417 8.47961 21.9049 8.9088 22.4262C9.33154 22.9398 10.0097 23.0333 10.5139 22.5923C11.4989 21.73 12.4635 20.8436 13.4292 19.9583C13.8004 19.6174 13.8562 19.1786 13.6985 18.7167C13.5386 18.2515 13.0901 17.9424 12.5762 17.8534ZM11.4034 23.747C11.4871 24.2771 11.706 24.6356 12.1245 24.8446C12.5494 25.0568 12.9678 24.993 13.3219 24.6796C14.1717 23.9285 15.0182 23.1707 15.8476 22.3954C16.2972 21.9753 16.2983 21.2626 15.8938 20.8051C15.4903 20.3498 14.8433 20.2761 14.3788 20.682C13.5139 21.4375 12.6609 22.2062 11.8294 22.9992C11.6309 23.1872 11.5418 23.4941 11.4034 23.747ZM6.16953 19.1313C6.26717 19.6735 6.50644 20.021 6.92382 20.2223C7.36802 20.4367 7.78541 20.341 8.15021 20.0122C8.71352 19.5063 9.2736 18.9971 9.83476 18.4879C10.3723 18.0007 10.4453 17.331 10.0193 16.8174C9.58262 16.2917 8.90343 16.2653 8.34657 16.7613C7.77146 17.2738 7.18348 17.7742 6.64056 18.3208C6.42811 18.5341 6.32296 18.8575 6.16953 19.1313ZM16.0719 26.5272C16.2103 26.4645 16.4721 26.404 16.6577 26.249C17.206 25.7915 17.7403 25.312 18.2511 24.8094C18.6717 24.3948 18.6642 23.7283 18.2811 23.2851C17.8895 22.832 17.2607 22.7385 16.8026 23.119C16.2328 23.593 15.6835 24.0967 15.1513 24.6147C14.8058 24.9501 14.7618 25.3879 14.9506 25.8278C15.1395 26.2688 15.4946 26.4843 16.0719 26.5272Z" fill="#495057"/>
</svg>
