<svg width="60" height="60" viewBox="0 0 60 60" fill="none" xmlns="http://www.w3.org/2000/svg">
<path d="M47.1429 55.7143V51.4286H51.4286V55.7143H47.1429Z" fill="#8F8F8F"/>
<path d="M34.2857 47.1429V42.8571H38.5714V47.1429H34.2857Z" fill="#8F8F8F"/>
<path d="M34.2857 60H42.8571V55.7143H38.5714V51.4286H34.2857V60Z" fill="#8F8F8F"/>
<path d="M51.4286 51.4286V42.8571H55.7143V51.4286H51.4286Z" fill="#8F8F8F"/>
<path d="M55.7143 51.4286H60V60H51.4286V55.7143H55.7143V51.4286Z" fill="#8F8F8F"/>
<path d="M51.4286 38.5714V34.2857H60V42.8571H55.7143V38.5714H51.4286Z" fill="#8F8F8F"/>
<path d="M47.1429 38.5714H42.8571V47.1429H38.5714V51.4286H47.1429V38.5714Z" fill="#8F8F8F"/>
<path d="M34.2857 38.5714V34.2857H42.8571V38.5714H34.2857Z" fill="#8F8F8F"/>
<path d="M8.57143 42.8571H17.1429V51.4286H8.57143V42.8571Z" fill="#8F8F8F"/>
<path d="M25.7143 60H0V34.2857H25.7143V60ZM4.28571 55.7143H21.4286V38.5714H4.28571V55.7143Z" fill="#8F8F8F"/>
<path d="M42.8571 8.57143H51.4286V17.1429H42.8571V8.57143Z" fill="#8F8F8F"/>
<path d="M60 25.7143H34.2857V0H60V25.7143ZM38.5714 21.4286H55.7143V4.28571H38.5714V21.4286Z" fill="#8F8F8F"/>
<path d="M8.57143 8.57143H17.1429V17.1429H8.57143V8.57143Z" fill="#8F8F8F"/>
<path d="M25.7143 25.7143H0V0H25.7143V25.7143ZM4.28571 21.4286H21.4286V4.28571H4.28571V21.4286Z" fill="#8F8F8F"/>
</svg>
