<svg width="24" height="24" viewBox="0 0 24 24" fill="none" xmlns="http://www.w3.org/2000/svg">
<path d="M22 2.43573V21.5643C22 21.8048 21.7462 22 21.4334 22H2.56657C2.25382 22 2 21.8048 2 21.5643V2.43573C2 2.19521 2.25382 2 2.56657 2H21.4334C21.7462 2 22 2.19521 22 2.43573Z" fill="#1490DF"/>
<path d="M20 4H4V7H20V4Z" fill="#05519C"/>
<path d="M15 3.55929V5.58943C15 5.81619 14.8432 6 14.6497 6H9.35031C9.15683 6 9 5.81619 9 5.58943V3.55929L10.9445 3.55933C10.9186 3.42914 10.9098 3.29127 10.921 3.14913C10.9695 2.53554 11.3986 2.04553 11.9231 2.00311C12.5564 1.95192 13.0837 2.53886 13.0837 3.27013C13.0837 3.36961 13.0739 3.46646 13.0555 3.55933L15 3.55929Z" fill="#28A8EA"/>
<path d="M4 7H20V16L16 20H12H4V7Z" fill="#28A8EA"/>
<path d="M20 16L16 20V16.5C16 16.2239 16.2239 16 16.5 16H20Z" fill="#05519C"/>
<path d="M4 20H16L15.5 20.5H14.5H13H10H7H4V20Z" fill="#05519C"/>
<path d="M14.8061 12.1128L13.0074 11.839L12.2033 10.1321C12.1814 10.0853 12.1452 10.0475 12.1006 10.0245C11.9887 9.96662 11.8527 10.0148 11.7967 10.1321L10.9926 11.839L9.19395 12.1128C9.14437 12.1202 9.09903 12.1447 9.06431 12.1818C9.02235 12.2269 8.99922 12.2877 9.00002 12.3507C9.00082 12.4137 9.02547 12.4738 9.06856 12.5178L10.3699 13.8465L10.0625 15.7226C10.0553 15.7662 10.0599 15.8111 10.0758 15.8521C10.0917 15.8932 10.1183 15.9287 10.1525 15.9548C10.1867 15.9808 10.2272 15.9963 10.2694 15.9994C10.3116 16.0026 10.3538 15.9933 10.3912 15.9726L12 15.0868L13.6088 15.9726C13.6528 15.9971 13.7038 16.0052 13.7527 15.9963C13.8759 15.9741 13.9588 15.8517 13.9375 15.7226L13.6301 13.8465L14.9315 12.5178C14.9669 12.4815 14.9903 12.434 14.9973 12.3821C15.0165 12.2522 14.93 12.1321 14.8061 12.1128Z" fill="white"/>
</svg>
