<svg width="24" height="24" viewBox="0 0 24 24" fill="none" xmlns="http://www.w3.org/2000/svg">
<path d="M22 2.43573V21.5643C22 21.8048 21.7462 22 21.4334 22H2.56657C2.25382 22 2 21.8048 2 21.5643V2.43573C2 2.19521 2.25382 2 2.56657 2H21.4334C21.7462 2 22 2.19521 22 2.43573Z" fill="#9332BF"/>
<path d="M20 4H4V7H20V4Z" fill="#7719AA"/>
<path d="M15 3.55929V5.58943C15 5.81619 14.8432 6 14.6497 6H9.35031C9.15683 6 9 5.81619 9 5.58943V3.55929L10.9445 3.55933C10.9186 3.42914 10.9098 3.29127 10.921 3.14913C10.9695 2.53554 11.3986 2.04553 11.9231 2.00311C12.5564 1.95192 13.0837 2.53886 13.0837 3.27013C13.0837 3.36961 13.0739 3.46646 13.0555 3.55933L15 3.55929Z" fill="#CA64EA"/>
<path d="M4 7H20V16L16 20H12H4V7Z" fill="#CA64EA"/>
<path d="M20 16L16 20V16.5C16 16.2239 16.2239 16 16.5 16H20Z" fill="#7719AA"/>
<path d="M15.8536 10.9841C16.0769 10.7296 16.0407 10.3512 15.7727 10.1391C15.5048 9.92694 15.1065 9.96134 14.8832 10.2159L11.1154 14.5112L9.07817 12.5757C8.83152 12.3414 8.43163 12.3414 8.18498 12.5757C7.93834 12.8101 7.93834 13.19 8.18498 13.4243L10.7113 15.8243C10.8368 15.9435 11.0092 16.007 11.1865 15.9994C11.3638 15.9917 11.5295 15.9136 11.6431 15.7841L15.8536 10.9841Z" fill="white"/>
<path d="M4 20H16L15.5 20.5H14.5H13H10H7H4V20Z" fill="#7719AA"/>
</svg>
