<svg width="24" height="24" viewBox="0 0 24 24" fill="none" xmlns="http://www.w3.org/2000/svg">
<path d="M22 2.43573V21.5643C22 21.8048 21.7462 22 21.4334 22H2.56657C2.25382 22 2 21.8048 2 21.5643V2.43573C2 2.19521 2.25382 2 2.56657 2H21.4334C21.7462 2 22 2.19521 22 2.43573Z" fill="#D35230"/>
<path d="M20 4H4V7H20V4Z" fill="#A44026"/>
<path d="M15 3.55929V5.58943C15 5.81619 14.8432 6 14.6497 6H9.35031C9.15683 6 9 5.81619 9 5.58943V3.55929L10.9445 3.55933C10.9186 3.42914 10.9098 3.29127 10.921 3.14913C10.9695 2.53554 11.3986 2.04553 11.9231 2.00311C12.5564 1.95192 13.0837 2.53886 13.0837 3.27013C13.0837 3.36961 13.0739 3.46646 13.0555 3.55933L15 3.55929Z" fill="#FF8F6B"/>
<path d="M4 7H20V16L16 20H12H4V7Z" fill="#FF8F6B"/>
<path d="M20 16L16 20V16.5C16 16.2239 16.2239 16 16.5 16H20Z" fill="#A44026"/>
<path d="M4 20H16L15.5 20.5H14.5H13H10H7H4V20Z" fill="#A44026"/>
<path d="M10.7541 14H9.2459C9.11007 14 9 13.8899 9 13.7541V12.2459C9 12.1101 9.11007 12 9.2459 12H10.7541C10.8899 12 11 12.1101 11 12.2459V13.7541C11 13.8899 10.8899 14 10.7541 14Z" fill="white"/>
<path d="M10.7541 10H9.2459C9.11007 10 9 9.88993 9 9.7541V8.2459C9 8.11007 9.11007 8 9.2459 8H10.7541C10.8899 8 11 8.11007 11 8.2459V9.7541C11 9.8899 10.8899 10 10.7541 10Z" fill="white"/>
<path d="M10.7541 18H9.2459C9.11007 18 9 17.8899 9 17.7541V16.2459C9 16.1101 9.11007 16 9.2459 16H10.7541C10.8899 16 11 16.1101 11 16.2459V17.7541C11 17.8899 10.8899 18 10.7541 18Z" fill="white"/>
<path d="M6.7541 14H5.2459C5.11007 14 5 13.8899 5 13.7541V12.2459C5 12.1101 5.11007 12 5.2459 12H6.7541C6.88993 12 7 12.1101 7 12.2459V13.7541C7 13.8899 6.88993 14 6.7541 14Z" fill="white"/>
<path d="M6.7541 10H5.2459C5.11007 10 5 9.88993 5 9.7541V8.2459C5 8.11007 5.11007 8 5.2459 8H6.7541C6.88993 8 7 8.11007 7 8.2459V9.7541C7 9.8899 6.88993 10 6.7541 10Z" fill="white"/>
<path d="M6.7541 18H5.2459C5.11007 18 5 17.8899 5 17.7541V16.2459C5 16.1101 5.11007 16 5.2459 16H6.7541C6.88993 16 7 16.1101 7 16.2459V17.7541C7 17.8899 6.88993 18 6.7541 18Z" fill="white"/>
<path d="M14.7541 14H13.2459C13.1101 14 13 13.8899 13 13.7541V12.2459C13 12.1101 13.1101 12 13.2459 12H14.7541C14.8899 12 15 12.1101 15 12.2459V13.7541C15 13.8899 14.8899 14 14.7541 14Z" fill="white"/>
<path d="M14.7541 10H13.2459C13.1101 10 13 9.88993 13 9.7541V8.2459C13 8.11007 13.1101 8 13.2459 8H14.7541C14.8899 8 15 8.11007 15 8.2459V9.7541C15 9.8899 14.8899 10 14.7541 10Z" fill="white"/>
<path d="M14.7541 18H13.2459C13.1101 18 13 17.8899 13 17.7541V16.2459C13 16.1101 13.1101 16 13.2459 16H14.7541C14.8899 16 15 16.1101 15 16.2459V17.7541C15 17.8899 14.8899 18 14.7541 18Z" fill="white"/>
<path d="M18.7541 14H17.2459C17.1101 14 17 13.8899 17 13.7541V12.2459C17 12.1101 17.1101 12 17.2459 12H18.7541C18.8899 12 19 12.1101 19 12.2459V13.7541C19 13.8899 18.8899 14 18.7541 14Z" fill="white"/>
<path d="M18.7541 10H17.2459C17.1101 10 17 9.88993 17 9.7541V8.2459C17 8.11007 17.1101 8 17.2459 8H18.7541C18.8899 8 19 8.11007 19 8.2459V9.7541C19 9.8899 18.8899 10 18.7541 10Z" fill="white"/>
</svg>
