<svg width="24" height="24" viewBox="0 0 24 24" fill="none" xmlns="http://www.w3.org/2000/svg">
<path d="M12 22C17.5228 22 22 17.5228 22 12C22 6.47715 17.5228 2 12 2C6.47715 2 2 6.47715 2 12C2 17.5228 6.47715 22 12 22Z" fill="#5DD59E"/>
<path d="M22 12C22 6.48598 17.514 2 12 2V22C17.514 22 22 17.514 22 12Z" fill="#21A366"/>
<path d="M12 19.6172C7.8 19.6172 4.38281 16.2 4.38281 12C4.38281 7.8 7.8 4.38281 12 4.38281C16.2 4.38281 19.6172 7.8 19.6172 12C19.6172 16.2 16.2 19.6172 12 19.6172Z" fill="#21A366"/>
<path d="M19.6172 12C19.6172 7.8 16.2 4.38281 12 4.38281V19.6172C16.2 19.6172 19.6172 16.2 19.6172 12Z" fill="#166138"/>
<path d="M11.2656 10.9141V9.58398H8.51758V8.45898H16.1699V9.58398H12.8066V10.9258C13.0723 10.8633 13.3301 10.832 13.5801 10.832C14.1777 10.832 14.6582 10.998 15.0215 11.3301C15.3887 11.6621 15.5723 12.1074 15.5723 12.666C15.5723 12.9434 15.5195 13.2324 15.4141 13.5332C15.3086 13.834 15.1738 14.0879 15.0098 14.2949L13.6211 14.0957C13.9766 13.5918 14.1543 13.1035 14.1543 12.6309C14.1543 12.416 14.0957 12.2539 13.9785 12.1445C13.8652 12.0312 13.7109 11.9746 13.5156 11.9746C13.1562 11.9746 12.7969 12.1543 12.4375 12.5137C12.2109 12.8652 11.8828 13.1133 11.4531 13.2578L13.252 15.4141L12.1504 16.2109L8.5 11.8574L9.56055 11.0312L10.5566 11.9453C10.8027 11.918 10.9824 11.8242 11.0957 11.6641C11.209 11.5039 11.2656 11.2539 11.2656 10.9141Z" fill="#5DD59E"/>
</svg>
