<svg width="24" height="24" viewBox="0 0 24 24" fill="none" xmlns="http://www.w3.org/2000/svg">
<path d="M12.0001 7.60681C13.3541 7.60681 14.4501 6.4646 14.4501 5.05336C14.4501 3.6422 13.3541 2.5 12.0001 2.5C10.646 2.5 9.55005 3.6422 9.55005 5.05336C9.55005 6.4646 10.646 7.60681 12.0001 7.60681ZM13.6801 8.33633H13.4985C13.0435 8.56429 12.5381 8.70105 12.0001 8.70105C11.462 8.70105 10.9588 8.56429 10.5016 8.33633H10.3201C8.9288 8.33633 7.80005 9.51272 7.80005 10.9626V11.6192C7.80005 12.2233 8.27036 12.7135 8.85005 12.7135H15.1501C15.7297 12.7135 16.2001 12.2233 16.2001 11.6192V10.9626C16.2001 9.51272 15.0713 8.33633 13.6801 8.33633Z" fill="#5ED49E"/>
<path d="M7.1 6.87715C7.87219 6.87715 8.5 6.2229 8.5 5.41811C8.5 4.61332 7.87219 3.95898 7.1 3.95898C6.32781 3.95898 5.7 4.61332 5.7 5.41811C5.7 6.2229 6.32781 6.87715 7.1 6.87715ZM8.78657 8.03073C8.53281 7.76858 8.185 7.60676 7.8 7.60676H6.4C5.62781 7.60676 5 8.26101 5 9.0658V9.79532C5 10.1989 5.31281 10.5248 5.7 10.5248H7.14157C7.27938 9.44421 7.905 8.53461 8.78657 8.03073Z" fill="#36C986"/>
<path d="M16.9 6.87715C17.6722 6.87715 18.3 6.2229 18.3 5.41811C18.3 4.61332 17.6722 3.95898 16.9 3.95898C16.1277 3.95898 15.5 4.61332 15.5 5.41811C15.5 6.2229 16.1277 6.87715 16.9 6.87715ZM17.6 7.60676H16.2C15.815 7.60676 15.4672 7.76858 15.2134 8.03073C16.095 8.53461 16.7206 9.44421 16.8562 10.5248H18.3C18.6872 10.5248 19 10.1989 19 9.79532V9.0658C19 8.26101 18.3722 7.60676 17.6 7.60676Z" fill="#36C986"/>
<path d="M20.9539 19.5464H3.04622C2.89237 19.5464 2.73853 19.6666 2.73853 19.8469V21.1995C2.73853 21.3798 2.89237 21.5 3.04622 21.5H20.9231C21.077 21.5 21.2308 21.3798 21.2308 21.1995V19.8469C21.2616 19.6666 21.1078 19.5464 20.9539 19.5464Z" fill="#23A96B"/>
<path d="M21.6923 10.8301H2.30769C2.12308 10.8301 2 10.9503 2 11.1306V12.1826C2 12.3629 2.12308 12.4832 2.30769 12.4832H2.76923V13.2346C2.76923 13.4149 2.92308 13.5351 3.07692 13.5351H20.9231C21.1077 13.5351 21.2308 13.4149 21.2308 13.2346V12.4832H21.6923C21.8769 12.4832 22 12.3629 22 12.1826V11.1306C22 10.9804 21.8769 10.8301 21.6923 10.8301Z" fill="#219254"/>
<path d="M19 14.105H14V19.1433H19V14.105Z" fill="#56DC9E"/>
<path d="M14 14.105H9V19.1433H14V14.105Z" fill="#56DC9E"/>
<path d="M9 14.105H4V19.1433H9V14.105Z" fill="#56DC9E"/>
<path d="M3.57129 13.5703C3.50225 13.5703 3.44629 13.6263 3.44629 13.6953V19.4866C3.44629 19.5556 3.50225 19.6116 3.57129 19.6116H20.429C20.498 19.6116 20.554 19.5556 20.554 19.4866V13.6953C20.554 13.6263 20.498 13.5703 20.429 13.5703H3.57129ZM8.89244 18.7099C8.89244 18.8903 8.76937 19.0105 8.58475 19.0105H5.26167C5.10783 19.0105 4.95398 18.8903 4.95398 18.7099V14.4419C4.95398 14.2616 5.10783 14.1414 5.26167 14.1414H8.58475C8.76937 14.1414 8.89244 14.2616 8.89244 14.4419V18.7099ZM13.8924 18.7099C13.8839 18.7099 13.8771 18.7168 13.8767 18.7253C13.8682 18.8971 13.7188 19.0105 13.5694 19.0105H10.2771C10.0924 19.0105 9.96937 18.8903 9.96937 18.7099V14.4419C9.96937 14.2616 10.0924 14.1414 10.2771 14.1414H13.6001C13.754 14.1414 13.9078 14.2616 13.9078 14.4419V18.6945C13.9078 18.703 13.9009 18.7099 13.8924 18.7099ZM18.8617 18.7099C18.8617 18.8903 18.7078 19.0105 18.554 19.0105H15.2309C15.0771 19.0105 14.9232 18.8903 14.9232 18.7099V14.4419C14.9232 14.2616 15.0771 14.1414 15.2309 14.1414H18.554C18.7078 14.1414 18.8617 14.2616 18.8617 14.4419V18.7099Z" fill="#23A96B"/>
</svg>
