<svg width="24" height="24" viewBox="0 0 24 24" fill="none" xmlns="http://www.w3.org/2000/svg">
<path d="M20 19H5V21H20V19Z" fill="white"/>
<path d="M6.5 2C5.83696 2 5.20107 2.26339 4.73223 2.73223C4.26339 3.20107 4 3.83696 4 4.5V19.5C4 20.163 4.26339 20.7989 4.73223 21.2678C5.20107 21.7366 5.83696 22 6.5 22H19.75C19.9489 22 20.1397 21.921 20.2803 21.7803C20.421 21.6397 20.5 21.4489 20.5 21.25C20.5 21.0511 20.421 20.8603 20.2803 20.7197C20.1397 20.579 19.9489 20.5 19.75 20.5H6.5C6.23478 20.5 5.98043 20.3946 5.79289 20.2071C5.60536 20.0196 5.5 19.7652 5.5 19.5H19.75C19.9489 19.5 20.1397 19.421 20.2803 19.2803C20.421 19.1397 20.5 18.9489 20.5 18.75V4.5C20.5 4.1717 20.4353 3.84661 20.3097 3.54329C20.1841 3.23998 19.9999 2.96438 19.7678 2.73223C19.5356 2.50009 19.26 2.31594 18.9567 2.1903C18.6534 2.06466 18.3283 2 18 2H6.5Z" fill="#5059C9"/>
<path d="M12.8704 15.2033C15.146 15.2033 16.9907 13.3669 16.9907 11.1016C16.9907 8.83637 15.146 7 12.8704 7C10.5947 7 8.75 8.83637 8.75 11.1016C8.75 13.3669 10.5947 15.2033 12.8704 15.2033Z" fill="#9097EE"/>
<path d="M12.8703 11.2226C13.5351 11.2226 14.0731 10.6657 14.0731 9.97771C14.0731 9.28975 13.5351 8.73291 12.8703 8.73291C12.2056 8.73291 11.6676 9.28975 11.6676 9.97771C11.6676 10.6657 12.2056 11.2226 12.8703 11.2226ZM13.6951 11.5782H13.606C13.3826 11.6894 13.1345 11.756 12.8703 11.756C12.6062 11.756 12.3592 11.6894 12.1347 11.5782H12.0456C11.3626 11.5782 10.8085 12.1517 10.8085 12.8586V13.1787C10.8085 13.4732 11.0394 13.7122 11.3239 13.7122H14.4168C14.7013 13.7122 14.9322 13.4732 14.9322 13.1787V12.8586C14.9322 12.1517 14.3781 11.5782 13.6951 11.5782Z" fill="#3F4486"/>
<path d="M5.33333 2H6V19.5H5.33333C4 19.5 4 19.5 4 17.3V3.7C4 2.765 4.6 2 5.33333 2Z" fill="#3F4486"/>
<path d="M4 19.5V18H5.5V19.5H4Z" fill="#3F4486"/>
</svg>
