<svg width="20" height="18" viewBox="0 0 20 18" fill="none" xmlns="http://www.w3.org/2000/svg">
<path d="M19.0939 3.1168V6.89022H0.905884V1.12585C0.905884 0.576061 1.33495 0.130371 1.86424 0.130371H7.54065C8.06994 0.130371 8.49901 0.576061 8.49901 1.12585V1.12585C8.49901 1.67564 8.92808 2.12133 9.45736 2.12133H18.1356C18.6648 2.12133 19.0939 2.56702 19.0939 3.1168Z" fill="#7A83EB"/>
<path d="M2.11047 3.23755H17.8893V6.16128H2.11047V3.23755Z" fill="white"/>
<path d="M19.6234 5.01196H0.376572C0.157495 5.01196 -0.0153352 5.20548 0.00107983 5.43242L0.87456 17.4353C0.892272 17.6802 1.08874 17.8696 1.32517 17.8696H18.6748C18.9113 17.8696 19.1077 17.6802 19.1254 17.4353L19.9989 5.43242C20.0153 5.20548 19.8425 5.01196 19.6234 5.01196Z" fill="#5059C9"/>
<path d="M10 15.7516C12.2756 15.7516 14.1204 13.8354 14.1204 11.4716C14.1204 9.10786 12.2756 7.19165 10 7.19165C7.72439 7.19165 5.87964 9.10786 5.87964 11.4716C5.87964 13.8354 7.72439 15.7516 10 15.7516Z" fill="#A7ACF1"/>
<path d="M9.99999 11.5979C10.6647 11.5979 11.2027 11.0168 11.2027 10.2989C11.2027 9.58105 10.6647 9 9.99999 9C9.33525 9 8.79723 9.58105 8.79723 10.2989C8.79723 11.0168 9.33525 11.5979 9.99999 11.5979ZM10.8247 11.969H10.7356C10.5122 12.085 10.2642 12.1546 9.99999 12.1546C9.73582 12.1546 9.4888 12.085 9.26438 11.969H9.17524C8.49224 11.969 7.93811 12.5675 7.93811 13.3051V13.6391C7.93811 13.9464 8.169 14.1958 8.45358 14.1958H11.5464C11.831 14.1958 12.0619 13.9464 12.0619 13.6391V13.3051C12.0619 12.5675 11.5077 11.969 10.8247 11.969Z" fill="#494F9C"/>
</svg>
