<svg width="24" height="24" viewBox="0 0 24 24" fill="none" xmlns="http://www.w3.org/2000/svg">
<path d="M21.0939 6.862V10.4782H2.90585V4.954C2.90585 4.42712 3.33492 4 3.8642 4H9.54062C10.0699 4 10.499 4.42712 10.499 4.954V4.954C10.499 5.48088 10.928 5.908 11.4573 5.908H20.1355C20.6648 5.908 21.0939 6.33512 21.0939 6.862Z" fill="#FB7951"/>
<path d="M4.11047 6.97778H19.8893V9.77969H4.11047V6.97778Z" fill="white"/>
<path d="M21.6234 8.67822H2.37657C2.15749 8.67822 1.98466 8.86367 2.00108 9.08116L2.87456 20.5839C2.89227 20.8187 3.08873 21.0001 3.32517 21.0001H20.6748C20.9113 21.0001 21.1077 20.8187 21.1254 20.5839L21.9989 9.08116C22.0153 8.86367 21.8425 8.67822 21.6234 8.67822Z" fill="#CF5130"/>
</svg>
