<svg width="20" height="21" viewBox="0 0 20 21" fill="none" xmlns="http://www.w3.org/2000/svg">
<path d="M18.3088 13.0635C18.4331 13.2789 18.4668 13.5348 18.4025 13.775C18.3381 14.0151 18.181 14.2199 17.9656 14.3442C17.7503 14.4686 17.4944 14.5022 17.2542 14.4379C17.014 14.3735 16.8092 14.2164 16.6849 14.001L15.4133 11.7985C14.6964 12.2455 13.9254 12.5991 13.119 12.8508L13.5245 15.1501C13.5472 15.2719 13.5456 15.397 13.5198 15.5182C13.4939 15.6394 13.4442 15.7543 13.3737 15.8562C13.3031 15.9581 13.2131 16.045 13.1087 16.1118C13.0044 16.1787 12.8878 16.2242 12.7658 16.2457C12.6437 16.2673 12.5186 16.2644 12.3977 16.2372C12.2768 16.2101 12.1624 16.1593 12.0613 16.0877C11.9601 16.016 11.8742 15.9251 11.8084 15.8201C11.7426 15.715 11.6983 15.598 11.678 15.4757L11.2833 13.2371C10.4284 13.3378 9.56455 13.3376 8.70969 13.2364L8.31508 15.4748C8.27081 15.7186 8.1318 15.935 7.92843 16.0767C7.72507 16.2183 7.4739 16.2736 7.22984 16.2306C6.98578 16.1876 6.76869 16.0496 6.62604 15.847C6.48339 15.6443 6.42678 15.3934 6.46859 15.1492L6.87414 12.8488C6.06885 12.5968 5.29899 12.2431 4.5832 11.7963L3.3032 14.0133C3.17888 14.2286 2.97411 14.3858 2.73394 14.4501C2.49377 14.5145 2.23787 14.4808 2.02254 14.3565C1.8072 14.2321 1.65008 14.0274 1.58572 13.7872C1.52137 13.547 1.55505 13.2911 1.67937 13.0758L3.0743 10.6597C2.60401 10.2358 2.16811 9.7753 1.7707 9.28245C1.61688 9.08881 1.54579 8.84223 1.57293 8.59642C1.60008 8.35061 1.72324 8.12548 1.91561 7.97007C2.10798 7.81465 2.35396 7.74154 2.59999 7.76666C2.84601 7.79177 3.07215 7.91308 3.22914 8.10416C4.45773 9.62487 6.62953 11.4375 10 11.4375C13.3703 11.4375 15.5422 9.62487 16.7708 8.10424C16.8478 8.00733 16.9432 7.92663 17.0515 7.86678C17.1598 7.80693 17.2789 7.76912 17.402 7.75554C17.525 7.74196 17.6495 7.75287 17.7682 7.78764C17.887 7.82241 17.9977 7.88036 18.094 7.95813C18.1903 8.03591 18.2702 8.13198 18.3292 8.2408C18.3881 8.34962 18.4249 8.46904 18.4375 8.59216C18.4501 8.71529 18.4381 8.83968 18.4024 8.95817C18.3666 9.07666 18.3078 9.1869 18.2292 9.28252C17.831 9.77645 17.394 10.2379 16.9226 10.6625L18.3088 13.0635Z" fill="#ADB5BD"/>
</svg>
