<svg width="24" height="24" viewBox="0 0 24 24" fill="none" xmlns="http://www.w3.org/2000/svg">
<path d="M22 10.3076L21.4141 17.9252H2.58594L2 10.3076L5.3332 7.8717H18.6668L22 10.3076Z" fill="#166138"/>
<path d="M22 10.3076L21.4141 17.9252H12V7.8717H18.6668L22 10.3076Z" fill="#166138"/>
<path d="M5.33325 3.25C5.33325 3.11193 5.44518 3 5.58325 3H18.4168C18.5549 3 18.6668 3.11193 18.6668 3.25V18.096C18.6668 18.2341 18.5549 18.346 18.4168 18.346H5.58325C5.44518 18.346 5.33325 18.2341 5.33325 18.096V3.25Z" fill="#2CAA70"/>
<path d="M12 3.25C12 3.11193 12.1119 3 12.25 3H18.4168C18.5549 3 18.6668 3.11193 18.6668 3.25V18.096C18.6668 18.2341 18.5549 18.346 18.4168 18.346H12.25C12.1119 18.346 12 18.2341 12 18.096V3.25Z" fill="#33C481"/>
<path d="M7.71436 5.32358H12V6.52252H7.71436V5.32358Z" fill="#F9F7F7"/>
<path d="M7.71436 8.24655H16.2854V9.44549H7.71436V8.24655Z" fill="#F9F7F7"/>
<path d="M7.71436 11.1696H16.2854V12.3685H7.71436V11.1696Z" fill="#F9F7F7"/>
<path d="M12 8.24655H16.2855V9.44549H12V8.24655Z" fill="#F9F7F7"/>
<path d="M12 11.1696H16.2855V12.3685H12V11.1696Z" fill="#F9F7F7"/>
<path d="M22 10.3076V22L12 21.0497L2 22V10.3076L10 16.154H14L22 10.3076Z" fill="#21A366"/>
<path d="M22 10.3076V22L12 21.0497V16.154H14L22 10.3076Z" fill="#21A366"/>
<path d="M22 22H2L12 14.6924L22 22Z" fill="#166138"/>
<path d="M22 22H12V14.6924L22 22Z" fill="#107C41"/>
</svg>
