<svg width="24" height="24" viewBox="0 0 24 24" fill="none" xmlns="http://www.w3.org/2000/svg">
<path d="M12.4999 15.8462C14.1441 15.8462 15.4749 14.4698 15.4749 12.7692C15.4749 11.0687 14.1441 9.69231 12.4999 9.69231C10.8557 9.69231 9.5249 11.0687 9.5249 12.7692C9.5249 14.4698 10.8557 15.8462 12.4999 15.8462ZM14.5399 16.7253H14.3194C13.7669 17 13.1533 17.1648 12.4999 17.1648C11.8465 17.1648 11.2355 17 10.6804 16.7253H10.4599C8.77053 16.7253 7.3999 18.1429 7.3999 19.8901V20.6813C7.3999 21.4093 7.97099 22 8.6749 22H16.3249C17.0288 22 17.5999 21.4093 17.5999 20.6813V19.8901C17.5999 18.1429 16.2293 16.7253 14.5399 16.7253Z" fill="#CA64EA"/>
<path d="M6.55 14.967C7.48766 14.967 8.25 14.1786 8.25 13.2088C8.25 12.239 7.48766 11.4505 6.55 11.4505C5.61234 11.4505 4.85 12.239 4.85 13.2088C4.85 14.1786 5.61234 14.967 6.55 14.967ZM8.59797 16.3571C8.28984 16.0412 7.8675 15.8462 7.4 15.8462H5.7C4.76234 15.8462 4 16.6346 4 17.6044V18.4835C4 18.9698 4.37984 19.3626 4.85 19.3626H6.60047C6.76781 18.0604 7.5275 16.9643 8.59797 16.3571Z" fill="#9332BF"/>
<path fill-rule="evenodd" clip-rule="evenodd" d="M9.3125 2.86003C9.3125 2.63193 9.39646 2.41318 9.5459 2.2519C9.69534 2.09061 9.89803 2 10.1094 2H14.8906C15.102 2 15.3047 2.09061 15.4541 2.2519C15.6035 2.41318 15.6875 2.63193 15.6875 2.86003V6.30014C15.6875 6.52824 15.6035 6.74699 15.4541 6.90827C15.3047 7.06956 15.102 7.16017 14.8906 7.16017H13.8945C13.8327 7.16017 13.7717 7.17571 13.7163 7.20557C13.661 7.23542 13.6129 7.27877 13.5758 7.33218L12.8188 8.4214C12.7816 8.47481 12.7335 8.51815 12.6782 8.54801C12.6229 8.57786 12.5619 8.59341 12.5 8.59341C12.4381 8.59341 12.3771 8.57786 12.3218 8.54801C12.2665 8.51815 12.2184 8.47481 12.1812 8.4214L11.4242 7.33218C11.3871 7.27877 11.339 7.23542 11.2837 7.20557C11.2283 7.17571 11.1673 7.16017 11.1055 7.16017H10.1094C9.89803 7.16017 9.69534 7.06956 9.5459 6.90827C9.39646 6.74699 9.3125 6.52824 9.3125 6.30014V2.86003ZM11.3047 4.58008C11.3047 4.69413 11.2627 4.80351 11.188 4.88415C11.1133 4.96479 11.0119 5.0101 10.9062 5.0101C10.8006 5.0101 10.6992 4.96479 10.6245 4.88415C10.5498 4.80351 10.5078 4.69413 10.5078 4.58008C10.5078 4.46604 10.5498 4.35666 10.6245 4.27602C10.6992 4.19538 10.8006 4.15007 10.9062 4.15007C11.0119 4.15007 11.1133 4.19538 11.188 4.27602C11.2627 4.35666 11.3047 4.46604 11.3047 4.58008ZM12.8984 4.58008C12.8984 4.69413 12.8565 4.80351 12.7817 4.88415C12.707 4.96479 12.6057 5.0101 12.5 5.0101C12.3943 5.0101 12.293 4.96479 12.2183 4.88415C12.1435 4.80351 12.1016 4.69413 12.1016 4.58008C12.1016 4.46604 12.1435 4.35666 12.2183 4.27602C12.293 4.19538 12.3943 4.15007 12.5 4.15007C12.6057 4.15007 12.707 4.19538 12.7817 4.27602C12.8565 4.35666 12.8984 4.46604 12.8984 4.58008ZM14.0938 5.0101C14.1994 5.0101 14.3008 4.96479 14.3755 4.88415C14.4502 4.80351 14.4922 4.69413 14.4922 4.58008C14.4922 4.46604 14.4502 4.35666 14.3755 4.27602C14.3008 4.19538 14.1994 4.15007 14.0938 4.15007C13.9881 4.15007 13.8867 4.19538 13.812 4.27602C13.7373 4.35666 13.6953 4.46604 13.6953 4.58008C13.6953 4.69413 13.7373 4.80351 13.812 4.88415C13.8867 4.96479 13.9881 5.0101 14.0938 5.0101Z" fill="white"/>
<path d="M18.4501 14.967C19.3878 14.967 20.1501 14.1786 20.1501 13.2088C20.1501 12.239 19.3878 11.4505 18.4501 11.4505C17.5124 11.4505 16.7501 12.239 16.7501 13.2088C16.7501 14.1786 17.5124 14.967 18.4501 14.967ZM19.3001 15.8462H17.6001C17.1326 15.8462 16.7103 16.0412 16.4021 16.3571C17.4726 16.9643 18.2323 18.0604 18.397 19.3626H20.1501C20.6203 19.3626 21.0001 18.9698 21.0001 18.4835V17.6044C21.0001 16.6346 20.2378 15.8462 19.3001 15.8462Z" fill="#9332BF"/>
</svg>
