<svg width="24" height="24" viewBox="0 0 24 24" fill="none" xmlns="http://www.w3.org/2000/svg">
<path d="M12 22C17.5228 22 22 17.5228 22 12C22 6.47715 17.5228 2 12 2C6.47715 2 2 6.47715 2 12C2 17.5228 6.47715 22 12 22Z" fill="#FF8F6B"/>
<path d="M22 12C22 6.48598 17.514 2 12 2V22C17.514 22 22 17.514 22 12Z" fill="#D35230"/>
<path d="M12 19.6172C7.8 19.6172 4.38281 16.2 4.38281 12C4.38281 7.8 7.8 4.38281 12 4.38281C16.2 4.38281 19.6172 7.8 19.6172 12C19.6172 16.2 16.2 19.6172 12 19.6172Z" fill="#D35230"/>
<path d="M19.6172 12C19.6172 7.8 16.2 4.38281 12 4.38281V19.6172C16.2 19.6172 19.6172 16.2 19.6172 12Z" fill="#A44026"/>
<path d="M15.3333 10H13.6667V9.66667C13.6667 9.299 13.3677 9 13 9H11C10.6323 9 10.3333 9.29898 10.3333 9.66667V10H8.66667C8.29898 10 8 10.299 8 10.6667V11.6667C8 12.0344 8.29898 12.3333 8.66667 12.3333H11.3333V12.1667C11.3333 12.0745 11.4079 12 11.5 12H12.5C12.5921 12 12.6667 12.0745 12.6667 12.1667V12.3333H15.3333C15.701 12.3333 16 12.0344 16 11.6667V10.6667C16 10.299 15.701 10 15.3333 10ZM13 10H11V9.66667H13V10Z" fill="#FF8F6B"/>
<path d="M15.9075 12.5132C15.8507 12.4851 15.7829 12.4916 15.7327 12.5296C15.6142 12.6193 15.4762 12.6667 15.3333 12.6667H12.6667V13.1667C12.6667 13.2588 12.5921 13.3334 12.5 13.3334H11.5C11.4079 13.3334 11.3333 13.2588 11.3333 13.1667V12.6667H8.66667C8.52376 12.6667 8.38575 12.6193 8.26725 12.5296C8.21695 12.4912 8.14925 12.4847 8.09244 12.5132C8.03581 12.5414 8 12.5991 8 12.6625V15C8 15.3677 8.29898 15.6667 8.66667 15.6667H15.3333C15.701 15.6667 16 15.3677 16 15V12.6625C16 12.5991 15.9642 12.5414 15.9075 12.5132Z" fill="#FF8F6B"/>
</svg>
