<svg width="24" height="24" viewBox="0 0 24 24" fill="none" xmlns="http://www.w3.org/2000/svg">
<path d="M22 7.27344L17.982 6.10156L16.8339 2H8.73499C6.89821 2 6.89819 2 6.89819 3.08817L6.8982 20.125C6.89819 22 6.89819 22 8.79787 22H20.278C22 21.9498 22 21.9498 22 20.2422V7.27344Z" fill="#7B83EB"/>
<path d="M21.9999 7.27344V20.2422C21.9999 21.213 21.2289 22 20.2779 22H14.5378V2H16.8339L17.9819 6.10156L21.9999 7.27344Z" fill="#7B83EB"/>
<path d="M22 7.27344H17.982C17.3506 7.27344 16.834 6.74609 16.834 6.10156V2C16.9832 2 17.1324 2.05859 17.2357 2.17582L21.8278 6.86332C21.9426 6.96875 22 7.12109 22 7.27344Z" fill="#3F4486"/>
<path d="M17.4637 10.2545H11.0272C10.7757 10.2545 10.5718 10.0857 10.5718 9.87726C10.5718 9.66886 10.7757 9.5 11.0272 9.5H17.4637C17.7153 9.5 17.9191 9.66886 17.9191 9.87726C17.9191 10.0857 17.7153 10.2545 17.4637 10.2545Z" fill="#F9F7F7"/>
<path d="M17.4637 12.7545H11.0272C10.7757 12.7545 10.5718 12.5857 10.5718 12.3773C10.5718 12.1689 10.7757 12 11.0272 12H17.4637C17.7153 12 17.9191 12.1689 17.9191 12.3773C17.9191 12.5857 17.7153 12.7545 17.4637 12.7545Z" fill="#F9F7F7"/>
<path d="M17.4637 15.2545H11.0272C10.7757 15.2545 10.5718 15.0857 10.5718 14.8773C10.5718 14.6689 10.7757 14.5 11.0272 14.5H17.4637C17.7153 14.5 17.9191 14.6689 17.9191 14.8773C17.9191 15.0857 17.7153 15.2545 17.4637 15.2545Z" fill="#F9F7F7"/>
<path d="M15.1664 17.7545H10.8754C10.7077 17.7545 10.5718 17.5857 10.5718 17.3773C10.5718 17.1689 10.7077 17 10.8754 17H15.1664C15.3341 17 15.47 17.1689 15.47 17.3773C15.47 17.5857 15.3341 17.7545 15.1664 17.7545Z" fill="white"/>
<path d="M12.1026 17C12.1026 18.3261 11.6349 19.5979 10.8025 20.5355C9.96995 21.4732 8.84088 22 7.66359 22C6.4863 22 5.35722 21.4732 4.52475 20.5355C3.69229 19.5979 3.22461 18.3261 3.22461 17C3.22461 15.6739 3.69229 14.4022 4.52475 13.4645C5.35722 12.5268 6.4863 12 7.66359 12C8.84088 12 9.96995 12.5268 10.8025 13.4645C11.6349 14.4022 12.1026 15.6739 12.1026 17ZM9.89972 15.1063C9.86009 15.0618 9.81289 15.0267 9.76096 15.0033C9.70904 14.9798 9.65344 14.9684 9.59749 14.9696C9.54155 14.9709 9.48641 14.9849 9.43538 15.0107C9.38434 15.0366 9.33845 15.0737 9.30046 15.12L7.37339 17.8856L6.21204 16.5769C6.13315 16.4941 6.02881 16.449 5.921 16.4512C5.81319 16.4533 5.71032 16.5025 5.63407 16.5884C5.55783 16.6743 5.51415 16.7901 5.51225 16.9116C5.51035 17.033 5.55037 17.1505 5.62388 17.2394L7.09207 18.8938C7.13162 18.9382 7.17872 18.9733 7.23055 18.9968C7.28239 19.0203 7.3379 19.0318 7.39378 19.0307C7.44965 19.0295 7.50475 19.0157 7.55577 18.99C7.6068 18.9643 7.65271 18.9274 7.69077 18.8813L9.90582 15.7625C9.98134 15.6741 10.0231 15.5558 10.0221 15.4331C10.021 15.3104 9.97727 15.1931 9.90028 15.1063H9.89972Z" fill="#3F4486"/>
<path d="M8.71658 15.1063C8.71222 15.1106 8.70813 15.1152 8.70434 15.12L6.57791 17.8856L5.29643 16.5769C5.20938 16.4941 5.09424 16.449 4.97527 16.4511C4.85631 16.4533 4.7428 16.5025 4.65867 16.5884C4.57453 16.6743 4.52634 16.7901 4.52424 16.9116C4.52214 17.033 4.5663 17.1505 4.64742 17.2394L6.26749 18.8938C6.31113 18.9382 6.36311 18.9733 6.4203 18.9968C6.4775 19.0203 6.53876 19.0318 6.60041 19.0307C6.66207 19.0295 6.72286 19.0157 6.77916 18.99C6.83547 18.9643 6.88613 18.9273 6.92813 18.8813L9.37233 15.7625C9.45555 15.6733 9.50106 15.5543 9.499 15.4312C9.49694 15.308 9.44749 15.1907 9.36134 15.1044C9.27518 15.0182 9.15925 14.9701 9.0386 14.9704C8.91794 14.9708 8.80227 15.0196 8.71658 15.1063Z" fill="white"/>
<path d="M11.7964 17C11.7964 18.3261 11.2803 19.5979 10.3617 20.5355C9.44313 21.4732 8.19726 22 6.89818 22C5.5991 22 4.35323 21.4732 3.43464 20.5355C2.51606 19.5979 2 18.3261 2 17C2 15.6739 2.51606 14.4021 3.43464 13.4645C4.35323 12.5268 5.5991 12 6.89818 12C8.19726 12 9.44313 12.5268 10.3617 13.4645C11.2803 14.4021 11.7964 15.6739 11.7964 17ZM9.36564 15.1062C9.32191 15.0618 9.26983 15.0267 9.21253 15.0033C9.15523 14.9798 9.09388 14.9683 9.03215 14.9696C8.97042 14.9709 8.90958 14.9849 8.85326 15.0107C8.79694 15.0366 8.74631 15.0737 8.70439 15.12L6.57796 17.8856L5.29648 16.5769C5.20943 16.4941 5.09429 16.449 4.97533 16.4511C4.85636 16.4533 4.74285 16.5025 4.65872 16.5884C4.57459 16.6742 4.52639 16.7901 4.52429 16.9115C4.52219 17.033 4.56635 17.1505 4.64747 17.2394L6.26754 18.8937C6.31118 18.9382 6.36316 18.9733 6.42035 18.9968C6.47755 19.0203 6.53881 19.0318 6.60046 19.0307C6.66212 19.0295 6.72291 19.0157 6.77922 18.99C6.83552 18.9643 6.88618 18.9273 6.92818 18.8813L9.37238 15.7625C9.4557 15.6741 9.50173 15.5558 9.50059 15.4331C9.49945 15.3104 9.4506 15.1931 9.36564 15.1062Z" fill="#7B83EB"/>
</svg>
