<svg width="24" height="24" viewBox="0 0 24 24" fill="none" xmlns="http://www.w3.org/2000/svg">
<path d="M22 2.43573V21.5643C22 21.8048 21.7462 22 21.4334 22H2.56657C2.25382 22 2 21.8048 2 21.5643V2.43573C2 2.19521 2.25382 2 2.56657 2H21.4334C21.7462 2 22 2.19521 22 2.43573Z" fill="#D35230"/>
<path d="M4.63456 5.51504L4 21C4 21.1574 4 21.3561 4.9154 21.3561H13.5C13.6052 21.3561 13.9256 21.0755 14 21L16.255 18.1368V5.29979H5.42483L5.35796 4.81001L4.81105 5.18031C4.70076 5.25496 4.63456 5.38056 4.63456 5.51504Z" fill="#A44026"/>
<path d="M20 5.401L20 16L16.7236 18.6742L14 21H4.54608C4.24448 21 4 20.8205 4 20.599V5.401C4 5.17953 4.24448 5 4.54608 5H19.4539C19.7555 5 20 5.17953 20 5.401Z" fill="#FF8F6B"/>
<path d="M20 16L14 21V16.5C14 16.2239 14.2798 16 14.625 16H20Z" fill="#A44026"/>
<path d="M15.9913 4.7364V5.5183C15.9913 6.07282 15.5463 6.52433 14.9998 6.52433H9.00005C8.45353 6.52433 8.00854 6.07282 8.00854 5.5183V4.7364H15.9913Z" fill="#A44026"/>
<path d="M8.00854 3.52917H15.9913V4.73642H8.00854V3.52917Z" fill="#A44026"/>
<path d="M15.3963 3.52832V5.51814C15.3963 5.7404 15.2188 5.92056 14.9997 5.92056H9.00012C8.78107 5.92056 8.60352 5.7404 8.60352 5.51814V3.52832L10.8049 3.52836C10.7757 3.40076 10.7657 3.26563 10.7784 3.12631C10.8332 2.5249 11.319 2.04462 11.9129 2.00305C12.6298 1.95287 13.2268 2.52816 13.2268 3.2449C13.2268 3.34241 13.2157 3.43734 13.1948 3.52836L15.3963 3.52832Z" fill="#FF8F6B"/>
<path d="M8.96173 9.97166C8.88499 9.97166 8.81107 9.94156 8.75558 9.8874L7.75071 8.90704C7.63229 8.7915 7.6286 8.60044 7.74246 8.48031C7.85633 8.36019 8.04467 8.35645 8.16302 8.47194L8.94389 9.23384L10.1685 7.82333C10.277 7.6983 10.465 7.68615 10.5883 7.79637C10.7115 7.90655 10.7235 8.0973 10.6149 8.22237L9.1849 9.86941C9.13124 9.93118 9.05509 9.96804 8.97403 9.97142C8.96994 9.97158 8.96582 9.97166 8.96173 9.97166Z" fill="white"/>
<path d="M15.7875 9.14813H11.5836C11.4193 9.14813 11.2861 9.01304 11.2861 8.84632C11.2861 8.6796 11.4193 8.54451 11.5836 8.54451H15.7875C15.9519 8.54451 16.085 8.6796 16.085 8.84632C16.085 9.01304 15.9519 9.14813 15.7875 9.14813Z" fill="white"/>
<path d="M8.96173 13.5222C8.88499 13.5222 8.81107 13.4921 8.75558 13.438L7.75071 12.4576C7.63229 12.3421 7.6286 12.151 7.74246 12.0309C7.85633 11.9107 8.04467 11.907 8.16302 12.0225L8.94436 12.7848L10.171 11.3775C10.2798 11.2526 10.4678 11.2409 10.5909 11.3514C10.714 11.4618 10.7255 11.6526 10.6166 11.7774L9.18454 13.4204C9.13085 13.4819 9.05474 13.5186 8.97375 13.522C8.96975 13.5221 8.9657 13.5222 8.96173 13.5222Z" fill="white"/>
<path d="M15.7875 12.6841H11.5836C11.4193 12.6841 11.2861 12.549 11.2861 12.3823C11.2861 12.2156 11.4193 12.0805 11.5836 12.0805H15.7875C15.9519 12.0805 16.085 12.2156 16.085 12.3823C16.085 12.549 15.9519 12.6841 15.7875 12.6841Z" fill="white"/>
<path d="M13.7054 16.3513H11.5836C11.4193 16.3513 11.2861 16.2162 11.2861 16.0495C11.2861 15.8828 11.4193 15.7477 11.5836 15.7477H13.7054C13.8697 15.7477 14.0028 15.8828 14.0028 16.0495C14.0028 16.2162 13.8697 16.3513 13.7054 16.3513Z" fill="white"/>
<path d="M10.0369 17.2769H8.21249C8.04818 17.2769 7.91504 17.1418 7.91504 16.9751V15.124C7.91504 14.9573 8.04818 14.8222 8.21249 14.8222H10.0369C10.2012 14.8222 10.3343 14.9573 10.3343 15.124V16.9751C10.3343 17.1418 10.2012 17.2769 10.0369 17.2769ZM8.50994 16.6733H9.7394V15.4258H8.50994V16.6733Z" fill="white"/>
</svg>
