<svg width="18" height="20" viewBox="0 0 18 20" fill="none" xmlns="http://www.w3.org/2000/svg">
<path d="M16.1609 11.4155C16.3233 10.4785 16.3233 9.52152 16.1609 8.58449L17.773 7.59429C17.9605 7.48131 18.0417 7.24872 17.9792 7.02941C17.5606 5.59396 16.842 4.29143 15.9047 3.21484C15.761 3.0487 15.5298 3.00882 15.3423 3.1218L13.7302 4.11199C13.0491 3.49395 12.268 3.01547 11.4245 2.69648V0.71609C11.4245 0.49014 11.2745 0.290771 11.0683 0.244251C9.67484 -0.0880288 8.25642 -0.0747377 6.93172 0.244251C6.72551 0.290771 6.57555 0.49014 6.57555 0.71609V2.69648C5.73199 3.01547 4.95091 3.49395 4.26982 4.11199L2.65768 3.1218C2.47647 3.00882 2.23903 3.0487 2.09531 3.21484C1.15802 4.29143 0.439434 5.59396 0.0207786 7.02941C-0.0417073 7.24872 0.0457714 7.48131 0.22698 7.59429L1.83912 8.58449C1.67665 9.52152 1.67665 10.4785 1.83912 11.4155L0.22698 12.4057C0.0395228 12.5187 -0.0417073 12.7513 0.0207786 12.9706C0.439434 14.406 1.15802 15.7019 2.09531 16.7852C2.23903 16.9513 2.47022 16.9912 2.65768 16.8782L4.26982 15.888C4.95091 16.5061 5.73199 16.9845 6.57555 17.3035V19.2839C6.57555 19.5099 6.72551 19.7092 6.93172 19.7557C8.32515 20.088 9.74358 20.0747 11.0683 19.7557C11.2745 19.7092 11.4245 19.5099 11.4245 19.2839V17.3035C12.268 16.9845 13.0491 16.5061 13.7302 15.888L15.3423 16.8782C15.5235 16.9912 15.761 16.9513 15.9047 16.7852C16.842 15.7086 17.5606 14.406 17.9792 12.9706C18.0417 12.7513 17.9542 12.5187 17.773 12.4057L16.1609 11.4155ZM9 15.3C7.32538 15.3 3.6 11.6744 3.6 9.9C3.6 8.12562 7.33163 4.5 9 4.5C10.6684 4.5 14.4 8.12562 14.4 9.9C14.4 11.6744 10.6746 15.3 9 15.3Z" fill="#17A1E8"/>
<g filter="url(#filter0_d)">
<ellipse cx="8.99998" cy="9.95455" rx="5.4" ry="5.45455" fill="#74C7F1"/>
</g>
<path d="M9.00898 9.95403C9.95198 9.95403 10.7152 9.14884 10.7152 8.15398C10.7152 7.15919 9.95198 6.354 9.00898 6.354C8.06599 6.354 7.30273 7.15919 7.30273 8.15398C7.30273 9.14884 8.06599 9.95403 9.00898 9.95403ZM10.179 10.4683H10.0525C9.73565 10.629 9.38373 10.7254 9.00898 10.7254C8.63424 10.7254 8.28381 10.629 7.96545 10.4683H7.83898C6.87008 10.4683 6.08398 11.2976 6.08398 12.3197V12.7826C6.08398 13.2084 6.41152 13.554 6.81523 13.554H11.2027C11.6064 13.554 11.934 13.2084 11.934 12.7826V12.3197C11.934 11.2976 11.1479 10.4683 10.179 10.4683Z" fill="#035FB0"/>
<defs>
<filter id="filter0_d" x="1.59998" y="2.5" width="14.8" height="14.9091" filterUnits="userSpaceOnUse" color-interpolation-filters="sRGB">
<feFlood flood-opacity="0" result="BackgroundImageFix"/>
<feColorMatrix in="SourceAlpha" type="matrix" values="0 0 0 0 0 0 0 0 0 0 0 0 0 0 0 0 0 0 127 0"/>
<feOffset/>
<feGaussianBlur stdDeviation="1"/>
<feColorMatrix type="matrix" values="0 0 0 0 0.308333 0 0 0 0 0.308333 0 0 0 0 0.308333 0 0 0 0.25 0"/>
<feBlend mode="normal" in2="BackgroundImageFix" result="effect1_dropShadow"/>
<feBlend mode="normal" in="SourceGraphic" in2="effect1_dropShadow" result="shape"/>
</filter>
</defs>
</svg>
