<svg width="24" height="24" viewBox="0 0 24 24" fill="none" xmlns="http://www.w3.org/2000/svg">
<path d="M19.1609 13.4155C19.3233 12.4785 19.3233 11.5215 19.1609 10.5845L20.773 9.59429C20.9605 9.48131 21.0417 9.24872 20.9792 9.02941C20.5606 7.59396 19.842 6.29143 18.9047 5.21484C18.761 5.0487 18.5298 5.00882 18.3423 5.1218L16.7302 6.11199C16.0491 5.49395 15.268 5.01547 14.4245 4.69648V2.71609C14.4245 2.49014 14.2745 2.29077 14.0683 2.24425C12.6748 1.91197 11.2564 1.92526 9.93172 2.24425C9.72551 2.29077 9.57555 2.49014 9.57555 2.71609V4.69648C8.73199 5.01547 7.95091 5.49395 7.26982 6.11199L5.65768 5.1218C5.47647 5.00882 5.23903 5.0487 5.09531 5.21484C4.15802 6.29143 3.43943 7.59396 3.02078 9.02941C2.95829 9.24872 3.04577 9.48131 3.22698 9.59429L4.83912 10.5845C4.67665 11.5215 4.67665 12.4785 4.83912 13.4155L3.22698 14.4057C3.03952 14.5187 2.95829 14.7513 3.02078 14.9706C3.43943 16.406 4.15802 17.7019 5.09531 18.7852C5.23903 18.9513 5.47022 18.9912 5.65768 18.8782L7.26982 17.888C7.95091 18.5061 8.73199 18.9845 9.57555 19.3035V21.2839C9.57555 21.5099 9.72551 21.7092 9.93172 21.7557C11.3252 22.088 12.7436 22.0747 14.0683 21.7557C14.2745 21.7092 14.4245 21.5099 14.4245 21.2839V19.3035C15.268 18.9845 16.0491 18.5061 16.7302 17.888L18.3423 18.8782C18.5235 18.9912 18.761 18.9513 18.9047 18.7852C19.842 17.7086 20.5606 16.406 20.9792 14.9706C21.0417 14.7513 20.9542 14.5187 20.773 14.4057L19.1609 13.4155ZM12 17.3C10.3254 17.3 6.6 13.6744 6.6 11.9C6.6 10.1256 10.3316 6.5 12 6.5C13.6684 6.5 17.4 10.1256 17.4 11.9C17.4 13.6744 13.6746 17.3 12 17.3Z" fill="#17A1E8"/>
<g filter="url(#filter0_d)">
<ellipse cx="12.0001" cy="11.9546" rx="5.4" ry="5.45455" fill="#74C7F1"/>
</g>
<path d="M12.009 11.954C12.952 11.954 13.7152 11.1488 13.7152 10.154C13.7152 9.15918 12.952 8.35399 12.009 8.35399C11.066 8.35399 10.3027 9.15918 10.3027 10.154C10.3027 11.1488 11.066 11.954 12.009 11.954ZM13.179 12.4683H13.0525C12.7356 12.629 12.3837 12.7254 12.009 12.7254C11.6342 12.7254 11.2838 12.629 10.9654 12.4683H10.839C9.87008 12.4683 9.08398 13.2976 9.08398 14.3197V14.7825C9.08398 15.2084 9.41152 15.554 9.81523 15.554H14.2027C14.6064 15.554 14.934 15.2084 14.934 14.7825V14.3197C14.934 13.2976 14.1479 12.4683 13.179 12.4683Z" fill="#035FB0"/>
<defs>
<filter id="filter0_d" x="4.6001" y="4.50001" width="14.8" height="14.9091" filterUnits="userSpaceOnUse" color-interpolation-filters="sRGB">
<feFlood flood-opacity="0" result="BackgroundImageFix"/>
<feColorMatrix in="SourceAlpha" type="matrix" values="0 0 0 0 0 0 0 0 0 0 0 0 0 0 0 0 0 0 127 0"/>
<feOffset/>
<feGaussianBlur stdDeviation="1"/>
<feColorMatrix type="matrix" values="0 0 0 0 0.308333 0 0 0 0 0.308333 0 0 0 0 0.308333 0 0 0 0.25 0"/>
<feBlend mode="normal" in2="BackgroundImageFix" result="effect1_dropShadow"/>
<feBlend mode="normal" in="SourceGraphic" in2="effect1_dropShadow" result="shape"/>
</filter>
</defs>
</svg>
