<svg width="24" height="24" viewBox="0 0 24 24" fill="none" xmlns="http://www.w3.org/2000/svg">
<path d="M22 2.43573V21.5643C22 21.8048 21.7462 22 21.4334 22H2.56657C2.25382 22 2 21.8048 2 21.5643V2.43573C2 2.19521 2.25382 2 2.56657 2H21.4334C21.7462 2 22 2.19521 22 2.43573Z" fill="#5059C9"/>
<path d="M4.74541 9.78527H10.0576C10.1918 9.78527 10.3006 9.67671 10.3006 9.54284V4.24243C10.3006 4.10856 10.1918 4 10.0576 4H4.74541C4.61115 4 4.50244 4.10856 4.50244 4.24243V9.54284C4.50244 9.67676 4.61115 9.78527 4.74541 9.78527Z" fill="#3F4486"/>
<path d="M14.4429 19.3853H19.7551C19.8894 19.3853 19.9981 19.2767 19.9981 19.1428V13.8424C19.9981 13.7086 19.8894 13.6 19.7551 13.6H14.4429C14.3087 13.6 14.2 13.7086 14.2 13.8424V19.1428C14.2 19.2768 14.3087 19.3853 14.4429 19.3853Z" fill="#3F4486"/>
<path d="M16.9111 3.8C15.2079 3.8 13.8223 5.18249 13.8223 6.88183C13.8223 8.58117 15.2079 9.96375 16.9111 9.96375C18.6143 9.96375 19.9999 8.58122 19.9999 6.88183C19.9999 5.18249 18.6142 3.8 16.9111 3.8Z" fill="#7B83EB"/>
<path d="M7.28877 13.6C5.58558 13.6 4.19995 14.9825 4.19995 16.6818C4.19995 18.3812 5.58558 19.7638 7.28877 19.7638C8.99197 19.7638 10.3776 18.3812 10.3776 16.6818C10.3775 14.9825 8.99192 13.6 7.28877 13.6Z" fill="#7B83EB"/>
<path d="M7.17008 10.1333C7.07615 10.1333 7 10.2093 7 10.303V12.5334C7 12.6271 7.07615 12.7031 7.17008 12.7031H7.55884C7.65277 12.7031 7.72892 12.6271 7.72892 12.5334V10.303C7.72892 10.2093 7.65277 10.1333 7.55884 10.1333H7.17008Z" fill="white"/>
<path d="M16.7699 10.2142C16.676 10.2142 16.5999 10.2902 16.5999 10.3839V12.6142C16.5999 12.708 16.676 12.7839 16.7699 12.7839H17.1587C17.2526 12.7839 17.3288 12.708 17.3288 12.6142V10.3839C17.3288 10.2902 17.2526 10.2142 17.1587 10.2142H16.7699Z" fill="white"/>
<path d="M12.7895 6.58606H11.0927C10.9987 6.58606 10.9226 6.66204 10.9226 6.75576V7.14365C10.9226 7.23737 10.9987 7.31335 11.0927 7.31335H12.7895C12.8834 7.31335 12.9596 7.23737 12.9596 7.14365V6.75576C12.9596 6.66204 12.8834 6.58606 12.7895 6.58606Z" fill="white"/>
</svg>
